<svg xmlns="http://www.w3.org/2000/svg" viewBox="0 0 16 16"><defs><style>.cls-1{fill:#fff;}</style></defs><g id="圖層_2" data-name="圖層 2"><g id="圖層_1-2" data-name="圖層 1"><path class="cls-1" d="M14.12,0H1.88A1.88,1.88,0,0,0,0,1.88V14.12A1.88,1.88,0,0,0,1.88,16H14.12A1.88,1.88,0,0,0,16,14.12V1.88A1.88,1.88,0,0,0,14.12,0Zm.63,14.12a.63.63,0,0,1-.63.63H10.44V10.19h2l.23-1.94H10.44V6.16a.91.91,0,0,1,.94-.94h1.4V3.41a12,12,0,0,0-1.4-.13,2.94,2.94,0,0,0-2,.84,2.87,2.87,0,0,0-.87,2V8.25h-2v1.94h2v4.56H1.88a.63.63,0,0,1-.63-.63V1.88a.63.63,0,0,1,.63-.63H14.12a.63.63,0,0,1,.63.63Z"/></g></g></svg>