<svg xmlns="http://www.w3.org/2000/svg" viewBox="0 0 16 16"><defs><style>.cls-1{fill:#fffffd;}</style></defs><g id="圖層_2" data-name="圖層 2"><g id="圖層_1-2" data-name="圖層 1"><path class="cls-1" d="M8.16,16H8c-1.26,0-2.41,0-3.54-.1a4.74,4.74,0,0,1-2.73-1A4.4,4.4,0,0,1,.26,12.5,10.44,10.44,0,0,1,0,10C0,9.4,0,8.71,0,8S0,6.6,0,6A10.31,10.31,0,0,1,.26,3.51,4.39,4.39,0,0,1,1.73,1.13,4.74,4.74,0,0,1,4.46.1C5.59,0,6.74,0,8,0s2.41,0,3.54.1a4.74,4.74,0,0,1,2.73,1,4.39,4.39,0,0,1,1.47,2.38A10.31,10.31,0,0,1,16,6c0,.58,0,1.27,0,2h0c0,.71,0,1.4,0,2a10.44,10.44,0,0,1-.24,2.52,4.4,4.4,0,0,1-1.47,2.37,4.74,4.74,0,0,1-2.73,1C10.46,16,9.35,16,8.16,16ZM8,14.75c1.23,0,2.37,0,3.47-.09a3.49,3.49,0,0,0,2-.76,3.14,3.14,0,0,0,1-1.71,9.75,9.75,0,0,0,.2-2.23c0-.58,0-1.26,0-2s0-1.38,0-2a9.75,9.75,0,0,0-.2-2.23,3.14,3.14,0,0,0-1-1.71,3.41,3.41,0,0,0-2-.75c-1.1-.07-2.24-.1-3.47-.1s-2.37,0-3.47.1a3.41,3.41,0,0,0-2,.75,3.14,3.14,0,0,0-1,1.71A9.75,9.75,0,0,0,1.27,6c0,.58,0,1.26,0,2s0,1.38,0,2a9.75,9.75,0,0,0,.2,2.23A3.14,3.14,0,0,0,2.52,13.9a3.49,3.49,0,0,0,2,.76C5.63,14.72,6.77,14.75,8,14.75Zm0-2.84A3.91,3.91,0,1,1,11.88,8,3.92,3.92,0,0,1,8,11.91ZM8,5.34A2.66,2.66,0,1,0,10.63,8,2.67,2.67,0,0,0,8,5.34Zm4.34-2.5a.94.94,0,1,0,.94.94A.93.93,0,0,0,12.31,2.84Z"/></g></g></svg>