<svg xmlns="http://www.w3.org/2000/svg" viewBox="0 0 99.17 97.02"><defs><style>.cls-1,.cls-10,.cls-11,.cls-12,.cls-13,.cls-14,.cls-15,.cls-16,.cls-2,.cls-3,.cls-4,.cls-5,.cls-6,.cls-7,.cls-8,.cls-9{fill:none;stroke:#fff;}.cls-1{stroke-miterlimit:10;}.cls-10,.cls-11,.cls-12,.cls-13,.cls-14,.cls-15,.cls-16,.cls-2,.cls-3,.cls-4,.cls-5,.cls-6,.cls-7,.cls-8,.cls-9{isolation:isolate;}.cls-2{font-size:12px;stroke-miterlimit:10;font-family:ArialMT, Arial;}.cls-3{font-size:12.68px;stroke-miterlimit:10;}.cls-10,.cls-11,.cls-12,.cls-13,.cls-14,.cls-15,.cls-16,.cls-3,.cls-4,.cls-5,.cls-6,.cls-7,.cls-8,.cls-9{font-family:Copperplate;}.cls-4{font-size:12.68px;stroke-miterlimit:10;}.cls-10,.cls-11,.cls-13,.cls-15,.cls-16,.cls-5,.cls-6,.cls-7,.cls-8,.cls-9{font-size:12.68px;}.cls-5,.cls-8{stroke-miterlimit:10;}.cls-6{stroke-miterlimit:10;}.cls-7{stroke-miterlimit:10;}.cls-9{stroke-miterlimit:10;}.cls-10{stroke-miterlimit:10;}.cls-11{stroke-miterlimit:10;}.cls-12{font-size:12.67px;stroke-miterlimit:10;}.cls-13{stroke-miterlimit:10;}.cls-14{font-size:12.68px;stroke-miterlimit:10;}.cls-15{stroke-miterlimit:10;}.cls-16{stroke-miterlimit:10;}</style></defs><g id="圖層_2" data-name="圖層 2"><g id="圖層_1-2" data-name="圖層 1"><path class="cls-1" d="M14.94,10.82c-21.7,21.3-20.1,73.2,12.7,83.4,18.5,5.7,48.6.9,60.7-15.4,13.8-18.5,4.8-41.8-8.8-57.3-12.4-14.2-31.7-25-49.8-19.6A35.25,35.25,0,0,0,14.94,10.82Z"/><path class="cls-1" d="M49.14,74.92c-.1.3-.3.4-.6.5-.5.2-.9.5-1.4.7-.3.1-.6.1-1,.2-.2-.3.1-.4.2-.5a6,6,0,0,1,2.3-1C48.94,74.82,49,74.82,49.14,74.92Z"/><path class="cls-1" d="M48.74,74.82c-.6.3-1.3.7-1.9,1-.2.1-.5.2-.6.5a.1.1,0,0,0-.1.1,1.45,1.45,0,0,0-.7.2c-.6.3-1.3.7-1.9,1,0-.1,0-.3.1-.3a4.05,4.05,0,0,1,.9-.5,4,4,0,0,0,1.6-.8,6.14,6.14,0,0,1,2.3-1.1C48.64,74.72,48.64,74.72,48.74,74.82Z"/><path class="cls-1" d="M48.54,74.82c-.6.3-1.1.6-1.7.9a1.42,1.42,0,0,1-.6.2,2.56,2.56,0,0,1,1.3-1A.9.9,0,0,1,48.54,74.82Z"/><path class="cls-1" d="M44.54,76.62a.87.87,0,0,1-.9.5c.1-.1.1-.3.2-.4s.3-.5.8-.4A.37.37,0,0,0,44.54,76.62Z"/><path class="cls-1" d="M43.94,76c.1,0,.3,0,.3-.1s.2-.1.4,0c0,.1-.1.2-.1.3-.2.1-.3.4-.7.2A.76.76,0,0,0,43.94,76Z"/><path class="cls-1" d="M43.84,76.32a1.45,1.45,0,0,0,.7-.2c0,.1,0,.1-.1.2a3,3,0,0,0-.8.4C43.74,76.62,43.74,76.42,43.84,76.32Z"/><path class="cls-1" d="M46.24,64c.3-.2.6-.3.9-.5s.4,0,.5.2.1.4.1.7a3.07,3.07,0,0,1,2.1-.6,3.18,3.18,0,0,0,.9-.3,3.46,3.46,0,0,1,3-.5c.2.2.1.4-.1.6a2.81,2.81,0,0,1-2,.6c-.5,0-1.1-.2-1.5.1-.1.1-.2.1-.3.2a3,3,0,0,1-1.9,1.1c-.2,0-.4.1-.4.3a13,13,0,0,0-.4,2.1c.7-.3,1.2-.8,2-.8.5.1.3.4.1.5a11.74,11.74,0,0,1-2.7,1.5A.37.37,0,0,1,46,69c.1-.3.1-.6.2-.9.1-.5.1-.5-.4-.7a4.51,4.51,0,0,1-1.4-1c.1-.5.5-.5,1-.5l.3.3c.2.2.4.4.5.3a.49.49,0,0,0,.3-.6.66.66,0,0,1,.1-.6C46.84,64.62,46.74,64.42,46.24,64Z"/><path class="cls-1" d="M45.94,68.92a.6.6,0,0,0,.4-.1c.9-.4,1.7-.9,2.6-1.3.1-.1.3-.2.1-.4a3.37,3.37,0,0,0,1.7-.8,2.73,2.73,0,0,1,1.6-.4c-.1.7-.8.8-1.3,1a4.18,4.18,0,0,0-1,.4c-.4.1-.6.4-.9.7a3.53,3.53,0,0,1-2,1.3c-.3,0-.4.2-.6.3-.4.2-.9.3-1.1.9a1,1,0,0,0-.5-.4,4.64,4.64,0,0,1-1.8-1.6,2,2,0,0,0-1.3-.9l-.9-.3c.1-.4.4-.5.9-.5a6.78,6.78,0,0,0,2.3,1.4,2.1,2.1,0,0,1,1.1.8c.1.2.3.3.5.5C45.94,69.32,45.84,69,45.94,68.92Z"/><path class="cls-1" d="M44.14,61.82c0,.2,0,.3.1.4a6,6,0,0,0-2-.8,3.37,3.37,0,0,1-1.7-.8,2.62,2.62,0,0,1-.9-.5c-.3-.3-.6-.5-.7-.9a1.53,1.53,0,0,0-.5-.7.73.73,0,0,1-.2-.6c0-.1.2-.3.3-.1a19.92,19.92,0,0,0,1.9,1.2,23.22,23.22,0,0,1,3,2.2C43.64,61.52,43.94,61.62,44.14,61.82Z"/><path class="cls-1" d="M43.94,65.62a2.7,2.7,0,0,0-1.7-1,8.86,8.86,0,0,1-3.1-1.1,4.15,4.15,0,0,1-1.2-1.1c-.2-.3-.2-.4.2-.5a3.19,3.19,0,0,1,1.4.3,11.15,11.15,0,0,1,2.4,1.3,1,1,0,0,1,.5.4,5.54,5.54,0,0,0,1.9,1.2C44.64,65.72,44.24,65.72,43.94,65.62Z"/><path class="cls-1" d="M40.24,66.92a5.11,5.11,0,0,1-2.1-1.5,8.74,8.74,0,0,1-.8-1c-.1-.3,0-.5.3-.3a12,12,0,0,1,3.7,2.3C41.14,66.82,40.74,66.92,40.24,66.92Z"/><path class="cls-1" d="M43.94,65.62c.2-.1.5-.2.6-.5a.71.71,0,0,1,.6.3c0,.1-.2.1-.3.1a.37.37,0,0,0,.3-.1c.1,0,.2.1.3.2a9.29,9.29,0,0,1-1,.5C44.14,66.12,44,65.82,43.94,65.62Z"/><path class="cls-1" d="M41.84,66.72c-.3.2-.6.3-.9.5-.1,0-.1,0-.2-.1s-.2-.2-.1-.3c.3-.2.5-.5,1-.3Z"/><path class="cls-1" d="M41.64,66.52c-.4.1-.8.1-.8.6-.2-.1-.4-.1-.6-.2l1.2-.6C41.54,66.32,41.54,66.42,41.64,66.52Z"/><path class="cls-1" d="M43.94,76a13.32,13.32,0,0,0,.5-1.9c.1-.5.1-.5-.4-.8a8.1,8.1,0,0,1-2.3-1.7c-.2-.2-.3-.4-.5-.6a4.94,4.94,0,0,0-2-1.8L36.84,68a12,12,0,0,1-2.9-2.6c-.1-.1-.2-.2-.1-.4a.45.45,0,0,1,.5,0,22.8,22.8,0,0,1,3,1.7,29.15,29.15,0,0,1,3.2,2.8,5.55,5.55,0,0,0,.8.6,6.33,6.33,0,0,1,2.9,2.7c.1.1.1.2.3.3a7.62,7.62,0,0,0,.6-2c.1-.2.1-.5.2-.7,0-.7.3-1,1.1-.9.1.3-.2.5-.1.9a7.09,7.09,0,0,0,2.8-.9,2.55,2.55,0,0,1,2.4,0,5.31,5.31,0,0,1,1.7.8c.3.3.3.3,0,.5a1.64,1.64,0,0,1-1,.1,5.85,5.85,0,0,1-1.9-.4,5.27,5.27,0,0,0-1.2-.3,1.16,1.16,0,0,0-1.3.5,2.48,2.48,0,0,1-1.6,1.2.63.63,0,0,0-.5.6,5.64,5.64,0,0,1-.4,1.2.59.59,0,0,0,.5-.2,5.64,5.64,0,0,1,3.1-1.2,1.7,1.7,0,0,0,.7-.1,3,3,0,0,1,2.1.1c.6.2.8.7,1.2,1.1.1.1,0,.3-.2.2a15.72,15.72,0,0,1-2.3-.4h-.1c-.8-.5-1.2-.5-1.8,0-.4.4-.9.8-1.3,1.2a8.17,8.17,0,0,1-2,1.2,1.61,1.61,0,0,0-.7.4C44.44,75.82,44.34,76.52,43.94,76Z"/><path class="cls-1" d="M40.44,75.12c-1-1-2.2-1.8-3.3-2.7a6.47,6.47,0,0,1-.8-.9c-.1-.2-.3-.4-.4-.6a11.53,11.53,0,0,0-2.7-2.7,1.93,1.93,0,0,1,1.3,0,7.88,7.88,0,0,1,4.5,3.1,6.52,6.52,0,0,0,2.1,1.6,5.92,5.92,0,0,1,2.4,2.3.44.44,0,0,1,.1.5,3.7,3.7,0,0,1-1.1-.5,6.83,6.83,0,0,1-2-1.8,3.85,3.85,0,0,0-1.8-1.5c-.1.5.4.6.5.9s.4.7.6,1.1.5.6.7.9C40.44,74.82,40.54,75,40.44,75.12Z"/><path class="cls-1" d="M41.14,84.82a6.42,6.42,0,0,0-1-1.3,9.8,9.8,0,0,1-1.3-2.2,2.56,2.56,0,0,0-1.3-1.6,3.76,3.76,0,0,1-1.8-1.5v-.1c-.7-.2-1-1-1.6-1.3s-1-1.1-1.5-1.7c.2-.1.4,0,.6,0a7.23,7.23,0,0,1,3.2,2,16.47,16.47,0,0,1,1.9,2.7,4.89,4.89,0,0,0,1.2,1.3A4,4,0,0,1,41,83a9.44,9.44,0,0,1,.3.9c.4-.2.3-.6.5-.9a6.78,6.78,0,0,1,2.3-1.4c.2-.1.4-.1.5.1a3.68,3.68,0,0,1-2.2,1.4c-.2,0-.3.2-.4.4a6.94,6.94,0,0,1-.5,1.3C41.44,84.92,41.34,85,41.14,84.82Z"/><path class="cls-1" d="M41.24,80.12c-.4-.2-.6-.6-.9-1a6.73,6.73,0,0,1-.7-1.1,6.67,6.67,0,0,0-2.5-2.5,7.84,7.84,0,0,1-1.5-1,26.21,26.21,0,0,1-3-2.8c-.1-.1-.2-.3-.4-.4s-.2-.1-.2-.3.2-.2.3-.1a4.88,4.88,0,0,0,.7.3,11.34,11.34,0,0,1,5,4.2,6.36,6.36,0,0,0,2,2,5.9,5.9,0,0,1,2.2,2.5c0,.1,0,.1-.1.2S41.54,79.92,41.24,80.12Z"/><path class="cls-1" d="M40.44,75.12c-.1-.1-.2-.3.1-.4.4.3.7.6,1.1.9a4.71,4.71,0,0,1,1.3,1.5,3.51,3.51,0,0,0,.5.8c.1.5-.1.4-.5.3A6.21,6.21,0,0,1,40.44,75.12Z"/><path class="cls-1" d="M50,49c-.6.1-1,.6-1.5.8-.3.1-.5.3-.8.1s-.2,0-.2.2v.8c.1.5.2.6.7.5.1,0,.1-.1.2,0,.6.2,1-.2,1.4-.4a1.77,1.77,0,0,1,2.4.5c.2.3.2.4-.1.5a3.4,3.4,0,0,1-2,0c-.9-.3-.9-.3-1.3.4a1.13,1.13,0,0,1-.8.5.55.55,0,0,0-.5.3c-.2.1-.4.5-.8.2-.1-.3-.2-.5-.6-.5a1.13,1.13,0,0,1-1.1-.3,2.08,2.08,0,0,0-1.2-.5,8.58,8.58,0,0,1-1.7-.3,4.92,4.92,0,0,1-1.5-1c-.2-.1-.1-.3.1-.3.8,0,1.4-.3,2.3.2a17.25,17.25,0,0,0,2.4,1,6.12,6.12,0,0,1,1.2.5,1.7,1.7,0,0,0,.1-.7c0-.6-.1-.6-.7-.9a2,2,0,0,1-.9-.5c-.1-.6,0-.7.8-.7l.6.3c-.1-1.5-.2-2.9-.3-4.3.4-.5.5-.5.8,0,.1.1,0,.3.1.4s.2-.1.3-.2a1.57,1.57,0,0,1,1.5-.3,1.31,1.31,0,0,0,1.1-.2,2.73,2.73,0,0,1,1.8-.5,2.66,2.66,0,0,1,1.6.6.21.21,0,0,1,0,.4A2.3,2.3,0,0,1,52,46a27.69,27.69,0,0,0-3,.3c-.6,0-1,.4-1.6.4-.2,0-.2.1-.2.3a17.67,17.67,0,0,0,.3,2.1,5.11,5.11,0,0,1,2.1-.3.91.91,0,0,0,.7-.3,5.63,5.63,0,0,1,1.8-.7c.2.4,0,.5-.3.7A3.45,3.45,0,0,1,50,49Z"/><path class="cls-1" d="M49.34,36.12c.4-.1.6.2.8.5a.64.64,0,0,1-.5,1.1c-.9-.1-1.6.3-2.5.2-.4,0-.6.5-.4.9a.37.37,0,0,0,.3.1,1.73,1.73,0,0,1,1,.1,2.05,2.05,0,0,0,1.1,0,4,4,0,0,1,1.9-.2.75.75,0,0,1,.7.5.64.64,0,0,1,0,.6c-.1.3-.5.3-.7.5s-.5.1-.8,0a7.72,7.72,0,0,0-2.6-.3c-1.1,0-1-.2-1,.9v.8c0,.2.1.3.2.3,0,.6-.2.8-.9.6a3.4,3.4,0,0,1-.1-1c0-.3-.1-.4-.4-.3a3.12,3.12,0,0,1-2.1-.3,1.48,1.48,0,0,0-.7-.1c-.5.1-1.3-.6-1.4-1.1a.37.37,0,0,1,.1-.3,2.06,2.06,0,0,1,2.3-.1,2.22,2.22,0,0,0,1.1.5c.4,0,.6.4,1,.6a4.48,4.48,0,0,0-.1-1.2,1,1,0,0,0-.8-.7c-.8-.1-1-.8-1.4-1.3-.2-.2,0-.6.4-.6a1.47,1.47,0,0,1,1.6.9c.1.2.2.4.5.3a1.06,1.06,0,0,1,.8-.9A27.73,27.73,0,0,1,49.34,36.12Z"/><path class="cls-1" d="M46.24,64a1.91,1.91,0,0,1-1-.5l-.6-.6c-.2-.2-.4-.3-.4-.6-.2-.1-.4-.3-.1-.4a4.46,4.46,0,0,1,2.6,1.4c.2,0,.2-.1.2-.3a16.2,16.2,0,0,1,.1-2.2c0-.3-.1-.5-.4-.5s-.4-.1-.6-.1a2.67,2.67,0,0,1-1.4-.7,4,4,0,0,0-2.3-1.2,6,6,0,0,1-2.6-1.4,6.45,6.45,0,0,1-1.1-1.6v-.2c0-.1.2-.1.2,0a14.94,14.94,0,0,1,2.5,1.3c.7.5,1.3,1.1,1.9,1.6a2,2,0,0,0,.8.4,8.64,8.64,0,0,1,2.1.7c.2.1.4.4.8.5a6.47,6.47,0,0,0-.1-2.4c0-.3.2-.4.4-.5.9-.5,1.8-.9,2.7-1.4.2-.1.4-.2.6,0-.1.3-.3.4-.6.6s-.9.4-1.3.7c-.7.2-.7.2-.7,1v2a12.05,12.05,0,0,1,0,1.9c0,.1,0,.2.1.2a.14.14,0,0,0,.2,0,3.84,3.84,0,0,1,2.1-.5,2.77,2.77,0,0,0,.9-.1c.1.4-.3.3-.5.4a6.78,6.78,0,0,1-2.2,1.2c-.5.2-.6.6-.8,1C47.14,63.82,46.74,64.12,46.24,64Z"/><path class="cls-1" d="M49.34,58.12a2.15,2.15,0,0,1,1.6-.4,4.82,4.82,0,0,1,1.2,0,3.18,3.18,0,0,0,.9-.3,6.1,6.1,0,0,1,3.3-.6,4.24,4.24,0,0,1,1.9.6c.3.2.2.4-.1.4-.6.1-1.1.5-1.8.3h-.1a6.16,6.16,0,0,1-2.7-.1,3.83,3.83,0,0,0-2.8.7,1.94,1.94,0,0,1-1.3.3c-.3-.1-.5.1-.7,0-.4-.1-.4-.2-.2-.5S49,58.32,49.34,58.12Z"/><path class="cls-1" d="M41.14,84.82h.4a1.69,1.69,0,0,1-.3,1c-.5,1.4-1,2.9-1.4,4.3a11.72,11.72,0,0,1-.9,2.4,1.86,1.86,0,0,1-1.3.7c-.1,0-.3.1-.4-.1a.3.3,0,0,1,0-.4,2.51,2.51,0,0,0,.4-.7c.3-.4.4-.9.7-1.3a10.09,10.09,0,0,0,.7-1.5c.3-.8.7-1.4,1-2.1a3.81,3.81,0,0,0,.3-1A3.53,3.53,0,0,0,41.14,84.82Z"/><path class="cls-1" d="M44.54,81.62a1.45,1.45,0,0,0-.7.2c-.7.3-1.3.7-2,1,.1-.2.1-.4.3-.5.5-.9,1.6-1,2.5-1.3a4.5,4.5,0,0,1,2.8-.4,5,5,0,0,1,2.5,1.3c.4.4.8.7,1.2,1.1.1.1.3.2.2.4s-.2.1-.4.1a8.25,8.25,0,0,1-2.6-1,14,14,0,0,0-1.6-1A2.17,2.17,0,0,0,44.54,81.62Z"/><path class="cls-1" d="M46,42.72c.3-.2.7-.3.9-.6.2-.1.4,0,.5,0a1.16,1.16,0,0,0,1-.2,2.69,2.69,0,0,1,1.8-.4c.6,0,.9.4,1.3.8a.19.19,0,0,1,0,.3c-.3.1-.6.4-.9.3a8.58,8.58,0,0,1-1.7-.3,1.09,1.09,0,0,0-1.3.3c-.1.1-.1.2-.2.2-.8.2-.6.9-.6,1.5v.7a.76.76,0,0,0-.8,0,4.1,4.1,0,0,1-.1-1.1c0-1,.1-1-1-.8-.2,0-.3.1-.5-.1.1-.5.6-.4,1-.6Q45.89,43,46,42.72Z"/><path class="cls-1" d="M44.54,81.12a11.88,11.88,0,0,1-2.5,1.3.82.82,0,0,1,.1-.7c.2-.7.2-.7-.4-1.2a1,1,0,0,1-.5-.4c.4-.5.5-.5,1-.2a.45.45,0,0,0,.5,0l.1-.1c.4-.7,1.2-.7,1.7-1a3,3,0,0,1,1-.4l.9-.6a1.7,1.7,0,0,1,1.8-.4c.2.6-.3.7-.7.8a1.48,1.48,0,0,1-.7.1c-.8,0-1.1.7-1.6,1.2-.2.2-.4.5-.7.6a1.61,1.61,0,0,0-1.1.5c-.3.2-.7.2-.6.7.3-.1.6-.1,1-.2S44.34,80.92,44.54,81.12Z"/><path class="cls-1" d="M43.64,55.52c-.3-.2-.5-.3-.8-.5a1.61,1.61,0,0,0-.7-.4,5.43,5.43,0,0,1-2.8-1.9,3.59,3.59,0,0,1-1-1.4c.1-.2.3-.1.4,0a6,6,0,0,1,3.4,2.2,5.17,5.17,0,0,0,1.7,1.6C44.14,55.52,43.94,55.52,43.64,55.52Z"/><path class="cls-1" d="M50.64,61.52a1,1,0,0,0,.5-.4,5.56,5.56,0,0,1,2.1-.6,5,5,0,0,1,3.5.9c0,.2-.2.3-.4.4a15,15,0,0,1-2.2.2,10,10,0,0,1-2.4-.4C51.54,61.42,51.14,61.52,50.64,61.52Z"/><path class="cls-1" d="M50,67.32c.1-.2.4-.3.6-.5.6-.3,1.1-.6,1.7-.9a6.08,6.08,0,0,1,1.9.1,3.53,3.53,0,0,1,1.3.8c.2.2.2.4.3.6h-.9c-.3,0-.7-.1-.9.1a.64.64,0,0,1-.6,0,6.6,6.6,0,0,0-1.4-.1h-.4A2.25,2.25,0,0,0,50,67.32Z"/><path class="cls-1" d="M46.84,78.22c.4-.3,1-.4,1.4-.9a4.48,4.48,0,0,1,3.3,1.7c.1.1.1.2.1.4a.37.37,0,0,1-.3.1c-.9-.4-1.8-.4-2.7-.8a1.85,1.85,0,0,0-.7-.2C47.44,78.52,47.24,78.12,46.84,78.22Z"/><path class="cls-1" d="M53.74,53.32c.6.1,1.1.1,1.7.2a.52.52,0,0,1,.4.2c.2.2.2.3-.1.5a7.75,7.75,0,0,1-2.3.7,12.05,12.05,0,0,1-1.9,0c-.2,0-.4.1-.6.1.4-.7,1.1-.8,1.7-1.2A11.73,11.73,0,0,0,53.74,53.32Z"/><path class="cls-1" d="M44.44,49.32a5.85,5.85,0,0,1-1.7-1,2.31,2.31,0,0,1-1-1.4c-.2-.5-.1-.6.5-.4a5.37,5.37,0,0,1,1.6,1c.5.4.9.8,1.4,1.2C45.24,49.42,44.84,49.32,44.44,49.32Z"/><path class="cls-1" d="M50,49c.5-.3,1-.5,1.5-.8.2-.1.5-.2.6-.5a3.2,3.2,0,0,1,1.9.5c.4.2.4.4,0,.5a5.57,5.57,0,0,1-2.9.5A5.16,5.16,0,0,1,50,49Z"/><path class="cls-1" d="M45.54,42.82a1.33,1.33,0,0,1-1,.6,3,3,0,0,1-1.6-.5.82.82,0,0,1-.5-.5c-.3-.5,0-.9.6-.9a1.22,1.22,0,0,1,1,.6c.2.3.4.4.7.3S45.34,42.42,45.54,42.82Z"/><path class="cls-1" d="M46,32.22c.2-.4-.1-.8-.4-1.1a1.91,1.91,0,0,1-.5-1c0-.1,0-.3.1-.3s.2.1.3.1.3.4.5.5c.2-.4-.3-.9.2-1.3.2.2,0,.4.3.6.3-.2.4-.7.9-.9a2.74,2.74,0,0,1-.2,1.3.1.1,0,0,1-.1.1,2.65,2.65,0,0,0-.8,2.1C46.34,32.52,46.24,32.62,46,32.22Z"/><path class="cls-1" d="M53.74,53.32c-.1.3-.4.4-.6.5-.7.4-1.4.7-2.1,1.1-.2.1-.3.2-.5.3-1.2.6-2.5,1.3-3.7,1.9a.6.6,0,0,1-.4-.1c-.2-.3,0-.4.2-.4s.3-.2.4-.3a11.69,11.69,0,0,1,3-1.4,6.11,6.11,0,0,0,1.4-.7A4.14,4.14,0,0,1,53.74,53.32Z"/><path class="cls-1" d="M47,56.52c-.1.3-.6.2-.6.5a5,5,0,0,1-1.2-.2,1.46,1.46,0,0,1-.9-.6c-.1-.3-.5-.3-.7-.6a1.38,1.38,0,0,0,.4-.3,4,4,0,0,1,2.3,1c.2.1.3.4.6.4C46.94,56.52,47,56.42,47,56.52Z"/><path class="cls-1" d="M43.64,45.92a1.75,1.75,0,0,1-2-1c-.2-.4-.1-.5.3-.6a1.6,1.6,0,0,1,1.6.5c.2.2.3.4.6.5C44.34,45.92,43.84,45.92,43.64,45.92Z"/><path class="cls-1" d="M46.84,53.42a1.08,1.08,0,0,1,.8-.2,19.48,19.48,0,0,1,.2,2.5q0,.75-.9.6c0-.8-.1-1.6-.1-2.4A.45.45,0,0,1,46.84,53.42Z"/><path class="cls-1" d="M51.54,64.12a3.45,3.45,0,0,0,2.1-1.2,2.47,2.47,0,0,1,1.6.8c0,.2-.1.2-.2.3a6.93,6.93,0,0,1-2,.3h-.8A1.08,1.08,0,0,1,51.54,64.12Z"/><path class="cls-1" d="M49.14,74.92a3.67,3.67,0,0,1,1.6.9,1.94,1.94,0,0,1-1.6.5c-.7-.1-1.3-.1-1.9-.2.3-.7,1.1-.7,1.6-1.1A.37.37,0,0,1,49.14,74.92Z"/><path class="cls-1" d="M46.54,33.92c0,.3.1.7.1,1.1.7-.5,1.1-1.2,2.1-1.3a2,2,0,0,1-.4.8,19.92,19.92,0,0,1-1.9,1.2c-.2.1-.4.2-.5-.1-.1-.5.2-.9,0-1.4l.1-.1C46.24,34,46.24,33.52,46.54,33.92Z"/><path class="cls-1" d="M43.64,45.92a.82.82,0,0,0,.5-.5,1.1,1.1,0,0,0,.8,0,1.08,1.08,0,0,1,.7.2c.4.4.6.7.4.9a.82.82,0,0,1-1.2,0A3.38,3.38,0,0,0,43.64,45.92Z"/><path class="cls-1" d="M42.84,78.22a.55.55,0,0,0,.5-.3h.1c.5-.3,1.1-.6,1.6-.9a.66.66,0,0,1,.6-.1,2,2,0,0,1-1.1,1.3c-.3.2-.7.3-.9.7l-.1.1a.44.44,0,0,1-.5.1C43.14,78.72,43.14,78.42,42.84,78.22Z"/><path class="cls-1" d="M46.64,32.62c.3.1.3-.1.4-.2a3.57,3.57,0,0,1,1-1.1c.2-.1.5-.4.7-.2s0,.5-.1.7a2.54,2.54,0,0,1-1.3,1.2c-.2.1-.4.2-.6,0S46.44,32.62,46.64,32.62Z"/><path class="cls-1" d="M46.54,33.92c-.2,0-.3.1-.5.2a.75.75,0,0,0-.5-.7,4.62,4.62,0,0,1-.7-.7.86.86,0,0,1-.3-.6c0-.2,0-.4.2-.4a.52.52,0,0,1,.4.2l.6.6a.32.32,0,0,0,.3.3c.2,0,.3.1.5.2,0,.1.1.2,0,.3a.19.19,0,0,0,0,.3A.19.19,0,0,1,46.54,33.92Z"/><path class="cls-1" d="M49.34,36.12c-.9.4-1.7.9-2.6,1.3a2.41,2.41,0,0,0-.8.6c-.1-.4.1-.7-.1-1.1a.19.19,0,0,1,.1-.3c.1-.2.3-.5.6-.1.1.5.1.4.5.3.6-.2,1.2-.4,1.9-.6C49,36.12,49.24,36,49.34,36.12Z"/><path class="cls-1" d="M45,34.72a1.49,1.49,0,0,1,.4.9c0,.2-.1.3-.3.2a2.7,2.7,0,0,1-1.1-1.5c0-.2,0-.3.2-.4a.76.76,0,0,1,.4.2A6.13,6.13,0,0,0,45,34.72Z"/><path class="cls-1" d="M45.64,76.92c-.5.3-1,.5-1.5.8a1.85,1.85,0,0,1-.7.2c0-.1.1-.2.1-.3a4.2,4.2,0,0,1,2.6-1.2C45.94,76.52,45.84,76.72,45.64,76.92Z"/><path class="cls-1" d="M46.64,36.42a.66.66,0,0,0-.6.1c0-.3-.2-.6-.1-.9a2.35,2.35,0,0,0,.8-.2c.6-.3,1.1-.6,1.7-.9a1.55,1.55,0,0,1-1.1.8A1,1,0,0,0,46.64,36.42Z"/><path class="cls-1" d="M46.94,56.22a.8.8,0,0,0,.9-.6c.1.2.2.2.4,0a2.58,2.58,0,0,1,1.3-.8,1.63,1.63,0,0,1,.7,0c-1,.5-2,1.1-3.1,1.6a.1.1,0,0,0-.1.1A.37.37,0,0,1,46.94,56.22Z"/><path class="cls-1" d="M45.54,78.42c-.9.5-1.8.9-2.7,1.4,0-.1,0-.3.1-.3.3-.1.4-.4.7-.6h.1c.1.1.2.2.3.1A2.29,2.29,0,0,1,45.54,78.42Z"/><path class="cls-1" d="M44.74,49.52h0a.75.75,0,0,1,.7-.5.1.1,0,0,1,.1.1c.2.2.2.3,0,.4S45,49.92,44.74,49.52Z"/><path class="cls-1" d="M48.64,56.52a1.86,1.86,0,0,1,1.3-.7A2.73,2.73,0,0,1,48.64,56.52Z"/><path class="cls-1" d="M43.54,80.52c.1-.5.5-.7,1.1-.5A3.7,3.7,0,0,1,43.54,80.52Z"/><path class="cls-1" d="M43.54,78.92c0,.4-.3.5-.7.6.1-.1.1-.3.2-.4S43.34,78.82,43.54,78.92Z"/><path class="cls-1" d="M44.74,49.52c.6.1.7.1.8-.4a1.38,1.38,0,0,1,.4.3c-.3.2-.7.3-.8.7A2.09,2.09,0,0,1,44.74,49.52Z"/><path class="cls-1" d="M46.34,27.82a1,1,0,0,1,.1.9C46.14,28.42,46.34,28.12,46.34,27.82Z"/><path class="cls-1" d="M46.54,32.92a.37.37,0,0,1-.5-.2h0c.1-.2.2-.3.5-.2a.1.1,0,0,0,.1.1v.2Z"/><path class="cls-1" d="M46.54,33.52c-.1,0-.3.2-.3,0s.1-.3.3-.3Z"/><path class="cls-1" d="M45.44,49c-.3.1-.5.3-.8.4-.1,0-.1,0-.2-.1.3-.1.6-.2.7-.5C45.24,48.82,45.34,48.92,45.44,49Z"/><path class="cls-1" d="M42.74,79.82c0,.1,0,.3-.2.3s-.2-.1-.3-.3h.5Z"/><path class="cls-1" d="M46.54,32.42c-.2.1-.3.2-.5.2v-.5a.6.6,0,0,0,.4.1A.31.31,0,0,1,46.54,32.42Z"/><path class="cls-1" d="M45,65.52a.66.66,0,0,1-.5.4c-.1,0-.2,0-.2-.1s0-.2.1-.2c.1-.2.4-.2.6-.1Z"/><text class="cls-2" transform="translate(25.8 19.2) rotate(-5.65)"> </text><text class="cls-3" transform="translate(29.12 18.73) rotate(1.9)">L</text><text class="cls-4" transform="translate(36.86 19.11) rotate(9.45)">I</text><text class="cls-5" transform="translate(41.06 19.67) rotate(17)">K</text><text class="cls-6" transform="translate(49.17 22.15) rotate(26.87)">E</text><text class="cls-7" transform="matrix(0.84, 0.54, -0.54, 0.84, 56.65, 26.09)"> </text><text class="cls-8" transform="translate(59.9 28.18) rotate(36.27)"> </text><text class="cls-9" transform="translate(63.02 30.47) rotate(39.49)"> </text><text class="cls-10" transform="translate(66.05 32.88) rotate(43.87)">L</text><text class="cls-11" transform="translate(71.59 38.3) rotate(47.82)">I</text><text class="cls-12" transform="translate(74.47 41.4) rotate(51.22)">F</text><text class="cls-13" transform="translate(79.32 47.44) rotate(55.03)">E</text><text class="cls-14" transform="matrix(0.52, 0.85, -0.85, 0.52, 84.11, 54.41)"> </text><text class="cls-15" transform="matrix(0.48, 0.88, -0.88, 0.48, 86.12, 57.71)"> </text><text class="cls-16" transform="translate(87.97 61.11) rotate(64.86)"> </text></g></g></svg>