<svg xmlns="http://www.w3.org/2000/svg" viewBox="0 0 81 121"><defs><style>.cls-1{fill:none;stroke:#f8f3ed;stroke-miterlimit:10;}</style></defs><g id="圖層_2" data-name="圖層 2"><g id="圖層_1-2" data-name="圖層 1"><path class="cls-1" d="M49.9,80.2a1.39,1.39,0,0,1-.7.8c-.6.5-1.2.9-1.8,1.4a7.84,7.84,0,0,1-1.4.5c-.3-.3,0-.5.2-.7a8.51,8.51,0,0,1,3.1-2.1A1.27,1.27,0,0,1,49.9,80.2Z"/><path class="cls-1" d="M49.3,80.2l-2.5,1.9a1.78,1.78,0,0,0-.7.8c-.1,0-.1.1-.2.1a3.13,3.13,0,0,0-1,.5c-.8.7-1.7,1.3-2.5,2a.45.45,0,0,1,0-.5,3.78,3.78,0,0,1,1.2-1,8.88,8.88,0,0,0,2.2-1.6c1-.8,1.7-1.8,3.1-2.2C49,80.2,49.2,80.1,49.3,80.2Z"/><path class="cls-1" d="M48.9,80.3c-.7.6-1.5,1.2-2.2,1.7a2.62,2.62,0,0,1-.9.5,3.69,3.69,0,0,1,1.7-1.8A1.49,1.49,0,0,1,48.9,80.3Z"/><path class="cls-1" d="M43.7,84.1a1.55,1.55,0,0,1-1.2,1c0-.2.1-.4.1-.6.2-.4.4-.8,1-.7A.77.77,0,0,0,43.7,84.1Z"/><path class="cls-1" d="M42.7,83.4a.76.76,0,0,0,.5-.2c.1-.2.3-.2.5-.1a.6.6,0,0,1-.1.4c-.3.2-.4.7-1,.5A1.08,1.08,0,0,1,42.7,83.4Z"/><path class="cls-1" d="M42.6,83.9a1.91,1.91,0,0,0,1-.5v.2c-.3.2-.7.5-1,.7C42.5,84.3,42.5,84.1,42.6,83.9Z"/><path class="cls-1" d="M42.4,66.5l1.2-.9a.49.49,0,0,1,.8.2,9.44,9.44,0,0,1,.3.9,5.42,5.42,0,0,1,2.9-1.5,2,2,0,0,0,1.2-.8A6,6,0,0,1,53,62.7c.3.3.3.5,0,.8A4.53,4.53,0,0,1,50.2,65c-.8.2-1.6.1-2.2.7-.1.1-.3.2-.4.4a4.2,4.2,0,0,1-2.4,2.1c-.3.1-.6.3-.5.6.1,1-.1,1.9,0,3,1-.6,1.5-1.5,2.7-1.8.7,0,.5.4.3.6a16.38,16.38,0,0,1-3.5,2.9.52.52,0,0,1-.8-.1V72.1c0-.6,0-.7-.8-.9a6.5,6.5,0,0,1-2.3-.9c.1-.7.6-.9,1.2-1,.2.1.4.1.6.2s.6.4.9.2a.76.76,0,0,0,.3-.9c-.2-.3-.1-.5,0-.8C43.5,67.1,43.3,66.8,42.4,66.5Z"/><path class="cls-1" d="M43.5,73.2c.2-.1.4-.1.6-.2,1.1-.9,2.3-1.7,3.4-2.6.2-.2.3-.3.1-.5a6.58,6.58,0,0,0,2.3-1.7,3.76,3.76,0,0,1,2.2-1c.1,1-.9,1.3-1.6,1.7a7.38,7.38,0,0,0-1.3.8,4.15,4.15,0,0,0-1.1,1.2,4.72,4.72,0,0,1-2.5,2.3,1.39,1.39,0,0,0-.8.7c-.6.4-1.3.8-1.3,1.5-.2-.3-.5-.3-.8-.4a9.4,9.4,0,0,1-3.2-1.5,3.49,3.49,0,0,0-2.2-.8c-.5,0-.9-.1-1.4-.1,0-.6.5-.8,1.1-.9a9.83,9.83,0,0,0,3.8,1.1,2.87,2.87,0,0,1,1.8.7,4.05,4.05,0,0,0,.9.5C43.6,73.7,43.4,73.4,43.5,73.2Z"/><path class="cls-1" d="M38.7,64.3a.86.86,0,0,0,.3.6,10.55,10.55,0,0,0-3.1-.4c-1,.2-1.8-.3-2.8-.4a4.19,4.19,0,0,1-1.5-.4,3.25,3.25,0,0,1-1.3-1,2.36,2.36,0,0,0-.9-.8.67.67,0,0,1-.4-.7c0-.2.2-.4.4-.3,1,.5,2.1.6,3.1,1a38.63,38.63,0,0,1,5.1,2A3.58,3.58,0,0,1,38.7,64.3Z"/><path class="cls-1" d="M39.5,69.5a3.77,3.77,0,0,0-2.7-.8,12.9,12.9,0,0,1-4.8-.5,7.5,7.5,0,0,1-2-1c-.5-.4-.4-.5.2-.7a4.11,4.11,0,0,1,2.2,0,27.44,27.44,0,0,1,3.9.9l.9.3a7.08,7.08,0,0,0,3.2,1C40.6,69.3,40.1,69.4,39.5,69.5Z"/><path class="cls-1" d="M34.5,72.4A5.78,5.78,0,0,1,31.1,71c-.4-.4-1.1-.6-1.4-1.1s-.1-.6.4-.6a19.91,19.91,0,0,1,6,1.8C35.9,71.9,35.3,72.2,34.5,72.4Z"/><path class="cls-1" d="M39.5,69.5c.3-.2.7-.4.8-.8a.92.92,0,0,1,.9.3c0,.2-.2.2-.4.2.2,0,.3-.1.4-.3a.52.52,0,0,1,.4.2c-.4.3-.8.7-1.2,1A2,2,0,0,1,39.5,69.5Z"/><path class="cls-1" d="M36.8,71.6c-.4.3-.7.6-1.1.9a.19.19,0,0,1-.3,0c-.2-.1-.4-.2-.3-.4.4-.3.6-.8,1.3-.7A.76.76,0,0,1,36.8,71.6Z"/><path class="cls-1" d="M36.4,71.4c-.6.2-1.2.4-1.1,1.1-.3,0-.6-.1-.9-.1l1.5-1.2A.59.59,0,0,1,36.4,71.4Z"/><path class="cls-1" d="M42.7,83.4a26.35,26.35,0,0,0,.2-2.8c.1-.7,0-.7-.8-.9a13.16,13.16,0,0,1-3.9-1.5,5.5,5.5,0,0,1-.9-.7,7.2,7.2,0,0,0-3.5-1.7c-1.3-.3-2.6-.5-3.8-.9a14,14,0,0,1-5-2.6.62.62,0,0,1-.3-.5.75.75,0,0,1,.8-.1A44.35,44.35,0,0,1,30.4,73a34.48,34.48,0,0,1,5.4,2.8,5.78,5.78,0,0,0,1.4.5,10.37,10.37,0,0,1,5.1,2.6c.1.1.3.2.5.4a9.88,9.88,0,0,0,.3-2.9,3.4,3.4,0,0,1,.1-1c-.2-.9.2-1.4,1.3-1.5.3.4-.2.8.1,1.2a11.13,11.13,0,0,0,3.8-2.2,4,4,0,0,1,3.5-.8,9.37,9.37,0,0,1,2.8.6c.6.2.6.3.1.7a3.36,3.36,0,0,1-1.4.5,14.15,14.15,0,0,1-2.9.2,5.92,5.92,0,0,0-1.9.1,1.87,1.87,0,0,0-1.8,1.2,3.88,3.88,0,0,1-1.9,2.1c-.4.3-.6.5-.6.9a12.37,12.37,0,0,1-.2,1.8,1,1,0,0,0,.7-.5c1-1.4,2.6-2,4.2-2.6a4.18,4.18,0,0,0,1-.4,5.26,5.26,0,0,1,3.1-.6,5.12,5.12,0,0,1,2.1,1c.2.1,0,.4-.2.4a20.55,20.55,0,0,1-3.5.2h-.1a2,2,0,0,0-2.7.6c-.5.6-1,1.3-1.5,2a11.58,11.58,0,0,1-2.6,2.3c-.3.2-.6.5-.9.7C43.3,83,43.4,84,42.7,83.4Z"/><path class="cls-1" d="M37.2,83.3a39.89,39.89,0,0,0-5.6-2.5,3.59,3.59,0,0,1-1.4-1,4.62,4.62,0,0,1-.7-.7c-1.2-1.3-3.1-1.8-4.8-2.7a3.13,3.13,0,0,1,1.9-.4,13.06,13.06,0,0,1,7.5,2.6A8.33,8.33,0,0,0,37.6,80a9.11,9.11,0,0,1,4.2,2.3c.2.1.4.3.2.6a11.27,11.27,0,0,1-1.8-.3,8.58,8.58,0,0,1-3.4-1.8,5.26,5.26,0,0,0-3-1.4c0,.6.8.7,1.1,1.1s.8.8,1.1,1.2.9.6,1.2,1C37.2,83,37.3,83.2,37.2,83.3Z"/><path class="cls-1" d="M41.1,96.1a13.93,13.93,0,0,0-1.9-1.5,14.78,14.78,0,0,1-2.5-2.5,4.1,4.1,0,0,0-2.5-1.8,7.27,7.27,0,0,1-3.1-1.4l-.1-.1c-1.1-.1-1.7-1-2.7-1.3a8.06,8.06,0,0,1-2.6-1.8,1.34,1.34,0,0,1,.8-.2,11,11,0,0,1,5.3,1.6,26,26,0,0,1,3.6,3,6.75,6.75,0,0,0,2.2,1.3,5,5,0,0,1,2.7,2,7,7,0,0,0,.8,1c.5-.4.2-.9.4-1.3.6-1.1,1.9-1.8,2.9-2.6.2-.2.5-.3.7,0-.8,1-1.4,2.1-2.8,2.7-.3.1-.3.4-.4.7a6.46,6.46,0,0,1-.4,1.9C41.5,96.3,41.4,96.4,41.1,96.1Z"/><path class="cls-1" d="M39.9,89.8a4.35,4.35,0,0,1-1.6-1,8.64,8.64,0,0,1-1.4-1.3A8.49,8.49,0,0,0,32.6,85a24.13,24.13,0,0,1-2.5-.8,32.46,32.46,0,0,1-5.2-2.8,1,1,0,0,0-.7-.4c-.2,0-.4-.1-.3-.3a.46.46,0,0,1,.5-.3c.3,0,.7.1,1,.1a16.41,16.41,0,0,1,8.5,4,9,9,0,0,0,3.4,2,9.93,9.93,0,0,1,4,2.6c0,.1,0,.2-.1.2C40.9,89.6,40.3,89.5,39.9,89.8Z"/><path class="cls-1" d="M37.2,83.3c-.2-.2-.3-.3,0-.5a14.17,14.17,0,0,0,1.8.8,5.33,5.33,0,0,1,2.3,1.6,7.64,7.64,0,0,0,.9.9c.3.6,0,.6-.6.5A7.77,7.77,0,0,1,37.2,83.3Z"/><path class="cls-1" d="M43.6,45.1c-.9.3-1.2,1.2-2,1.6-.4.2-.6.6-1.2.5-.3,0-.3.1-.3.4a4.51,4.51,0,0,0,.3,1.1c.2.7.5.8,1.2.5.1,0,.2-.1.3-.1,1,.1,1.4-.6,2-1.1a2.87,2.87,0,0,1,3.7-.1c.4.3.4.5,0,.7a5.83,5.83,0,0,1-2.9.6c-1.4-.1-1.4-.1-1.8.9a1.79,1.79,0,0,1-1,.9c-.4.1-.6.2-.6.6-.3.3-.4.8-1.1.6a.78.78,0,0,0-1.1-.4,1.73,1.73,0,0,1-1.7-.1,3.4,3.4,0,0,0-2-.3,22.75,22.75,0,0,1-2.6.2,5.66,5.66,0,0,1-2.5-.8c-.3-.1-.3-.4,0-.5,1.1-.3,2-.9,3.4-.5a23.2,23.2,0,0,0,3.8.5,12.5,12.5,0,0,1,1.9.3c.2-.4,0-.7-.1-1-.2-.8-.3-.8-1.3-.9-.5-.1-1,0-1.4-.3-.3-.8-.1-1,.9-1.2.3.1.6.1,1,.2-.6-2-1.1-3.9-1.7-5.7.4-.8.6-.8,1.2-.3.1.2,0,.4.3.5s.3-.3.4-.4a2.38,2.38,0,0,1,2-.9,1.86,1.86,0,0,0,1.6-.7,4.24,4.24,0,0,1,2.4-1.2,4.35,4.35,0,0,1,2.5.3c.3.1.4.3.2.6a3,3,0,0,1-1.9,1c-1.5.3-2.9,1-4.4,1.3-.8.2-1.4.9-2.2,1.1-.2.1-.3.3-.2.4a14.76,14.76,0,0,0,1,2.7A7.64,7.64,0,0,1,42.8,45a3.33,3.33,0,0,0,1-.6,7.93,7.93,0,0,1,2.5-1.5c.4.4.1.7-.2,1A5.84,5.84,0,0,1,43.6,45.1Z"/><path class="cls-1" d="M38.8,28a1.19,1.19,0,0,1,1.3.4.87.87,0,0,1-.5,1.6c-1.3.2-2.3,1-3.6,1.2a.79.79,0,0,0-.4,1.3.45.45,0,0,0,.5,0,2.62,2.62,0,0,1,1.5-.2,2.28,2.28,0,0,0,1.6-.4,6.18,6.18,0,0,1,2.7-.9,1.29,1.29,0,0,1,1.2.4.78.78,0,0,1,.2.8c-.1.4-.6.6-.8.9s-.7.2-1.2.2a12,12,0,0,0-3.8.5c-1.6.4-1.5.1-1.1,1.6.1.4.2.7.3,1.1,0,.2.2.3.4.4.2.8-.1,1.1-1.2,1.1a3.26,3.26,0,0,1-.4-1.3c-.1-.3-.2-.5-.7-.3a4.37,4.37,0,0,1-3.2.2,1.64,1.64,0,0,0-1,.1,2.47,2.47,0,0,1-2.4-1c-.1-.2-.1-.3.1-.4.5-.3.8-.8,1.5-.9a2.78,2.78,0,0,1,1.8,0,2.49,2.49,0,0,0,1.7.3c.5-.1,1,.3,1.6.4a7.49,7.49,0,0,0-.5-1.6,1.51,1.51,0,0,0-1.4-.7c-1.2.1-1.7-.8-2.4-1.3-.4-.2-.1-.8.4-.9a2.33,2.33,0,0,1,2.7.7c.2.2.4.5.8.3a1.51,1.51,0,0,1,.9-1.4C36.6,29.5,37.6,28.6,38.8,28Z"/><path class="cls-1" d="M42.4,66.5a2.28,2.28,0,0,1-1.6-.4,3.7,3.7,0,0,0-1.1-.5c-.3-.2-.7-.3-.8-.7-.3-.1-.6-.2-.3-.6a7.69,7.69,0,0,1,4.2,1c.2-.1.3-.3.2-.4-.2-1-.4-2-.5-3a.7.7,0,0,0-.8-.6h-.8a4,4,0,0,1-2.2-.5,6.66,6.66,0,0,0-3.6-.9,9.35,9.35,0,0,1-4.3-1,9.09,9.09,0,0,1-2.1-1.8c-.1,0-.1-.2,0-.3s.2-.1.3-.1a28.75,28.75,0,0,1,4,.9,24.94,24.94,0,0,1,3.3,1.6,2.77,2.77,0,0,0,1.3.3,11.5,11.5,0,0,1,3.2.2c.4.1.7.4,1.2.4a12.8,12.8,0,0,0-.9-3.2c-.1-.4.2-.6.4-.8,1.2-.9,2.4-1.9,3.6-2.8a.78.78,0,0,1,.8-.2c0,.5-.4.7-.7,1-.5.5-1.2.8-1.7,1.3-1,.5-1,.5-.7,1.6l.6,2.7a8,8,0,0,1,.5,2.6c0,.1,0,.2.2.3s.3,0,.4-.1c.7-.9,1.9-1,2.9-1.4a6.47,6.47,0,0,0,1.3-.4c.2.5-.4.5-.7.7a12.73,12.73,0,0,1-2.8,2.4c-.7.4-.7,1-.9,1.6A2.65,2.65,0,0,1,42.4,66.5Z"/><path class="cls-1" d="M45.2,57.6a2.87,2.87,0,0,1,2.2-1c.6-.1,1.1-.3,1.8-.4.5,0,.9-.4,1.3-.7a9.77,9.77,0,0,1,4.7-1.9,6.13,6.13,0,0,1,3,.2c.4.2.5.4,0,.6-.9.3-1.5,1-2.5.9-.1,0-.1,0-.2.1a9,9,0,0,1-4,.8,6.29,6.29,0,0,0-3.9,1.9,2.74,2.74,0,0,1-1.8.8c-.4,0-.7.3-1.1.3-.6,0-.7-.2-.5-.7S44.9,57.9,45.2,57.6Z"/><path class="cls-1" d="M41.1,96.1c.2,0,.3-.1.5-.1a2.57,2.57,0,0,1-.1,1.5c-.3,2.1-.6,4.2-.8,6.3a19.68,19.68,0,0,1-.6,3.5,3.49,3.49,0,0,1-1.7,1.4c-.2,0-.4.2-.6,0a.47.47,0,0,1-.1-.6c.3-.3.2-.7.4-1.1a13.89,13.89,0,0,0,.6-1.9,9,9,0,0,0,.6-2.2,16.81,16.81,0,0,1,.9-3.2,6.75,6.75,0,0,0,.2-1.4A8.08,8.08,0,0,0,41.1,96.1Z"/><path class="cls-1" d="M45.2,90.7a3.13,3.13,0,0,0-1,.5c-.9.7-1.7,1.4-2.6,2.1,0-.3,0-.5.3-.7.5-1.4,2-1.9,3.3-2.5a7.32,7.32,0,0,1,8-.6c.7.4,1.3.7,2,1.1.2.1.5.2.4.5s-.3.2-.5.2a10.75,10.75,0,0,1-4-.5c-.8-.3-1.7-.5-2.6-.8A3.43,3.43,0,0,0,45.2,90.7Z"/><path class="cls-1" d="M36,38a4.15,4.15,0,0,0,1.2-1.1,2,2,0,0,1,.8-.1,1.68,1.68,0,0,0,1.4-.6A4.22,4.22,0,0,1,41.9,35a3.07,3.07,0,0,1,2.1.6.25.25,0,0,1,.1.4c-.4.3-.7.7-1.2.8a11.4,11.4,0,0,1-2.6.2,1.69,1.69,0,0,0-1.8.8c-.1.1-.1.3-.2.3-1.1.6-.6,1.4-.4,2.2.1.3.2.6.3,1-.5-.2-.8.1-1.2.3a4.42,4.42,0,0,1-.5-1.5c-.4-1.3-.1-1.3-1.7-.8a1.13,1.13,0,0,1-.8.1c0-.7.8-.8,1.2-1.1C35.6,38.3,35.8,38.3,36,38Z"/><path class="cls-1" d="M45.1,90.1a13.67,13.67,0,0,1-3.3,2.5c-.3-.3-.1-.7-.1-1,.1-1,.1-1-.9-1.5l-.9-.3c.5-.8.5-.8,1.3-.6.3,0,.5.1.7-.2l.1-.1c.3-1,1.5-1.3,2.3-1.9a5.67,5.67,0,0,1,1.3-.8A4.26,4.26,0,0,0,46.7,85a2.79,2.79,0,0,1,2.6-1.1c.5.8-.3,1-.8,1.3l-.9.3c-1.2.3-1.4,1.3-1.9,2.1a2.54,2.54,0,0,1-.8,1,3,3,0,0,0-1.4,1c-.4.3-.9.5-.6,1.2.5-.2.9-.4,1.3-.6A.9.9,0,0,1,45.1,90.1Z"/><path class="cls-1" d="M36.2,55.9a6.47,6.47,0,0,1-1.3-.4,2.28,2.28,0,0,0-1.1-.3,8.24,8.24,0,0,1-4.6-1.6,5.35,5.35,0,0,1-1.8-1.5c.1-.3.4-.2.6-.2a9.75,9.75,0,0,1,5.7,1.9,5.72,5.72,0,0,0,3,1.5C37,55.8,36.6,55.9,36.2,55.9Z"/><path class="cls-1" d="M48.2,61.7a2.34,2.34,0,0,0,.7-.7,10,10,0,0,1,2.9-1.5,8,8,0,0,1,5.3.1.68.68,0,0,1-.4.6,15.83,15.83,0,0,1-3.1.9c-1.2.1-2.3.3-3.6.3A5.66,5.66,0,0,0,48.2,61.7Z"/><path class="cls-1" d="M49,69.7a1.39,1.39,0,0,1,.7-.8c.7-.6,1.5-1.2,2.2-1.7a6.92,6.92,0,0,1,2.8-.5,5.09,5.09,0,0,1,2.1.6c.3.1.4.4.5.7a3,3,0,0,1-1.3.2,2.3,2.3,0,0,0-1.4.4,1.49,1.49,0,0,1-.9.2,7.79,7.79,0,0,0-2.1.4.66.66,0,0,1-.6.1A2.92,2.92,0,0,0,49,69.7Z"/><path class="cls-1" d="M47.5,85.4c.6-.6,1.4-.9,1.7-1.6A6.28,6.28,0,0,1,54.5,85a.37.37,0,0,1,.2.5.4.4,0,0,1-.4.2c-1.4-.2-2.8.1-4.2-.2a1.39,1.39,0,0,0-1.1,0C48.5,85.7,48,85.2,47.5,85.4Z"/><path class="cls-1" d="M50.3,49.7l2.5-.3a1.7,1.7,0,0,1,.7.1c.3.2.4.4.1.6a11.39,11.39,0,0,1-3.1,1.6,28.64,28.64,0,0,1-2.8.7c-.3,0-.5.3-.9.3.3-1,1.4-1.4,2.2-2.1C49.3,50.3,49.9,50.1,50.3,49.7Z"/><path class="cls-1" d="M35.5,47.4a28.64,28.64,0,0,1-2.8-.7,4.13,4.13,0,0,1-1.9-1.5c-.4-.7-.3-.8.6-.7a8.42,8.42,0,0,1,2.7.8l2.4,1.2C36.8,47.2,36.1,47.3,35.5,47.4Z"/><path class="cls-1" d="M43.6,45.1c.6-.5,1.3-1,1.9-1.5a1.78,1.78,0,0,0,.7-.8,5.7,5.7,0,0,1,2.9,0c.6.1.7.4.2.7a8.27,8.27,0,0,1-4,1.6Z"/><path class="cls-1" d="M35.2,38.2c-.1.6-.7.8-1.2,1.1a5.3,5.3,0,0,1-2.5-.1,1.62,1.62,0,0,1-.9-.5c-.6-.6-.3-1.2.6-1.4a2.28,2.28,0,0,1,1.6.4c.4.3.7.4,1.1.1A1.09,1.09,0,0,1,35.2,38.2Z"/><path class="cls-1" d="M32.9,23.8c.1-.6-.3-1-.9-1.3s-.7-.7-1-1.2c-.1-.2-.1-.4.1-.5s.3,0,.5.1.5.5.9.4c.2-.6-.7-1.2-.1-1.8.3.1.2.5.6.7.4-.4.4-1.1,1.1-1.5a2.77,2.77,0,0,1,0,1.8c0,.1,0,.1-.1.2a3,3,0,0,0-.5,3C33.4,24.1,33.2,24.3,32.9,23.8Z"/><path class="cls-1" d="M50.3,49.7c-.1.4-.5.6-.8.9-.9.7-1.8,1.5-2.8,2.2a1.79,1.79,0,0,1-.7.5c-1.6,1.3-3.2,2.5-4.8,3.8a.64.64,0,0,1-.6,0c-.4-.4-.1-.6.2-.6s.4-.3.5-.5c1.4-.9,2.4-2.2,4-2.9a8.62,8.62,0,0,0,1.8-1.4A7.23,7.23,0,0,1,50.3,49.7Z"/><path class="cls-1" d="M41.5,56.1c-.1.4-.8.4-.8.9a10.87,10.87,0,0,1-1.8.1,1.72,1.72,0,0,1-1.5-.6c-.3-.4-.9-.3-1.2-.6.2-.2.4-.3.5-.6a6.76,6.76,0,0,1,3.7.6c.3.1.6.4,1.1.2C41.3,56.2,41.4,56.1,41.5,56.1Z"/><path class="cls-1" d="M33.3,43.1a2.63,2.63,0,0,1-3.2-.7c-.4-.4-.4-.7.2-.9a2.69,2.69,0,0,1,2.6.2,8.79,8.79,0,0,0,1,.6C34.3,42.9,33.7,42.9,33.3,43.1Z"/><path class="cls-1" d="M40.2,52.1a2.87,2.87,0,0,1,1.1-.6c.4,1.1.7,2.2,1,3.3.1.7-.3,1.1-1.1,1.1-.3-1.1-.6-2.1-.9-3.2A.66.66,0,0,1,40.2,52.1Z"/><path class="cls-1" d="M50.3,64.9a6.89,6.89,0,0,0,2.8-2.2,4.68,4.68,0,0,1,2.6.5.3.3,0,0,1-.2.4,6.72,6.72,0,0,1-2.8,1,5.27,5.27,0,0,0-1.2.3C51,65,50.6,65.1,50.3,64.9Z"/><path class="cls-1" d="M49.9,80.2a8.17,8.17,0,0,1,2.6.6A2.9,2.9,0,0,1,50.3,82c-1,.1-1.9.3-2.9.4.3-1,1.4-1.3,2.1-2C49.6,80.4,49.8,80.2,49.9,80.2Z"/><path class="cls-1" d="M34.1,25.9c.2.5.3.9.5,1.5.8-.9,1.2-2,2.7-2.4a2.38,2.38,0,0,1-.3,1.2c-.7.8-1.7,1.4-2.5,2.2a.61.61,0,0,1-.8.1c-.2-.6.1-1.3-.4-1.9a.35.35,0,0,0,.1-.2C33.6,26.1,33.5,25.5,34.1,25.9Z"/><path class="cls-1" d="M33.3,43.1c.3-.2.6-.5.6-.8a3.59,3.59,0,0,0,1.1-.2,1.18,1.18,0,0,1,1,.1c.7.3,1.1.7.8,1.1a1.38,1.38,0,0,1-1.8.4A1.83,1.83,0,0,0,33.3,43.1Z"/><path class="cls-1" d="M41.7,86.7c.3-.1.6-.2.6-.5l.1-.1c.6-.6,1.4-1.1,2.1-1.7a.92.92,0,0,1,.9-.3,2.57,2.57,0,0,1-1.2,2.1c-.5.3-1,.6-1.1,1.2l-.1.1c-.2.2-.4.4-.7.3C42.3,87.3,42.2,86.9,41.7,86.7Z"/><path class="cls-1" d="M33.8,24.1c.5.1.4-.3.5-.4a7.24,7.24,0,0,1,1.1-1.9c.3-.2.6-.7,1-.5s.1.6,0,.9a3.18,3.18,0,0,1-1.6,2c-.3.2-.5.4-.9.2C33.6,24.4,33.6,24.3,33.8,24.1Z"/><path class="cls-1" d="M34.1,25.9a.68.68,0,0,0-.6.4,1.42,1.42,0,0,0-.9-.8c-.5-.2-.8-.5-1.3-.7a1,1,0,0,1-.6-.7c-.1-.2-.2-.5.1-.6a.88.88,0,0,1,.7.1,3,3,0,0,1,1,.7c.1.1.3.3.5.2a2.35,2.35,0,0,1,.8.2c.1.1.2.3.1.4s-.2.3.1.4C34.1,25.6,34.2,25.8,34.1,25.9Z"/><path class="cls-1" d="M38.8,28c-1.1.9-2.2,1.8-3.4,2.6a3.18,3.18,0,0,0-1,1c-.2-.5-.1-1-.5-1.5-.1-.2,0-.3.1-.5s.3-.7.8-.3c.3.6.3.6.8.3.8-.5,1.7-1,2.5-1.5C38.4,28,38.6,27.9,38.8,28Z"/><path class="cls-1" d="M32.1,27.5c.3.3.8.6.9,1s-.1.4-.4.4a3.31,3.31,0,0,1-2.1-1.7c0-.2-.1-.4.2-.6s.4.1.6.1C31.6,26.9,31.8,27.3,32.1,27.5Z"/><path class="cls-1" d="M45.4,84.1c-.7.5-1.3,1-2,1.5a1.91,1.91,0,0,1-1,.5c0-.2.1-.3.1-.5A6.49,6.49,0,0,1,46,83.1,8.79,8.79,0,0,0,45.4,84.1Z"/><path class="cls-1" d="M34.9,29.3a1.14,1.14,0,0,0-.8.3c-.1-.4-.5-.7-.4-1.2a2.07,2.07,0,0,0,1-.6c.7-.6,1.5-1.1,2.2-1.7a2.54,2.54,0,0,1-1.3,1.4C35,28.1,34.7,28.6,34.9,29.3Z"/><path class="cls-1" d="M41.2,55.9a1.18,1.18,0,0,0,1.1-1.1c.2.2.4.2.5-.1a3.59,3.59,0,0,1,1.7-1.5,1.64,1.64,0,0,1,1-.2c-1.3,1.1-2.7,2.1-4,3.2-.1,0-.1.1-.2.1C41.3,56.1,41.2,56,41.2,55.9Z"/><path class="cls-1" d="M45.6,86.1c-1.2.9-2.4,1.9-3.5,2.8,0-.2-.1-.3.1-.5s.5-.7.8-1h.1c.1.1.3.2.4.1A5.18,5.18,0,0,1,45.6,86.1Z"/><path class="cls-1" d="M36,47.6c-.1,0-.1-.1-.2-.1a1.55,1.55,0,0,1,1.1-.8c.1,0,.1,0,.2.1.4.1.4.3.1.5S36.6,48,36,47.6Z"/><path class="cls-1" d="M43.7,55.6a2.57,2.57,0,0,1,1.7-1.3A2.83,2.83,0,0,1,43.7,55.6Z"/><path class="cls-1" d="M43.4,89.6c0-.7.6-1.1,1.4-1A17,17,0,0,1,43.4,89.6Z"/><path class="cls-1" d="M43,87.4a1.05,1.05,0,0,1-.8,1c0-.2.1-.4.1-.6A.72.72,0,0,1,43,87.4Z"/><path class="cls-1" d="M36,47.6c1-.1,1-.1,1.1-.9a.71.71,0,0,1,.6.3c-.4.4-1,.6-.9,1.2A5.55,5.55,0,0,1,36,47.6Z"/><path class="cls-1" d="M32,17.8c.4.3.4.7.4,1.2C31.8,18.7,32.1,18.2,32,17.8Z"/><path class="cls-1" d="M33.8,24.6c-.3.1-.6.2-.8-.2h0c.1-.3.3-.4.6-.5,0,.1.1.1.1.2s.1.2.1.3A.14.14,0,0,1,33.8,24.6Z"/><path class="cls-1" d="M34,25.4c-.2.1-.4.3-.5.1s0-.5.4-.6A1.34,1.34,0,0,1,34,25.4Z"/><path class="cls-1" d="M36.9,46.6a7.63,7.63,0,0,1-1.1.8.37.37,0,0,1-.3-.1c.4-.3.8-.5.9-1A1.33,1.33,0,0,0,36.9,46.6Z"/><path class="cls-1" d="M41.9,89c.1.2.1.4-.1.5s-.4-.1-.5-.2l.1-.1A1.69,1.69,0,0,1,41.9,89Z"/><path class="cls-1" d="M33.6,24c-.2.2-.4.3-.6.5a1.27,1.27,0,0,1-.1-.6.85.85,0,0,0,.7,0Z"/><path class="cls-1" d="M41.2,68.9a1,1,0,0,1-.7.7.25.25,0,0,1-.4-.1c-.1-.1,0-.2,0-.3a2,2,0,0,1,1.1-.3Z"/><path class="cls-1" d="M41,120.5H40A39.52,39.52,0,0,1,.5,81V40A39.52,39.52,0,0,1,40,.5h1A39.52,39.52,0,0,1,80.5,40V81A39.52,39.52,0,0,1,41,120.5Z"/></g></g></svg>