<svg xmlns="http://www.w3.org/2000/svg" viewBox="0 0 79.9 119.9"><defs><style>.cls-1{fill:#44442f;}.cls-2{fill:#efece8;}</style></defs><g id="圖層_2" data-name="圖層 2"><g id="圖層_1-2" data-name="圖層 1"><path class="cls-1" d="M42.1,119.9H37.8A37.77,37.77,0,0,1,0,82.1V37.8A37.77,37.77,0,0,1,37.8,0h4.3A37.77,37.77,0,0,1,79.9,37.8V82.1A37.83,37.83,0,0,1,42.1,119.9Z"/><path class="cls-2" d="M44.8,78.5c-.1.4-.4.6-.7.9l-1.8,1.5c-.5.2-.9.4-1.4.6-.3-.3,0-.6.2-.7a9.45,9.45,0,0,1,3.1-2.1A.73.73,0,0,1,44.8,78.5Z"/><path class="cls-2" d="M44.2,78.5l-2.6,2a2,2,0,0,0-.8.8c-.1,0-.1.1-.2.1a3.13,3.13,0,0,0-1,.5c-.9.7-1.7,1.4-2.6,2.1a.45.45,0,0,1,0-.5,6.28,6.28,0,0,1,1.2-1.1,7.6,7.6,0,0,0,2.2-1.7,10.93,10.93,0,0,1,3.2-2.3A2.14,2.14,0,0,0,44.2,78.5Z"/><path class="cls-2" d="M43.8,78.6c-.8.6-1.5,1.2-2.3,1.8a2.62,2.62,0,0,1-.9.5A3.89,3.89,0,0,1,42.3,79,2,2,0,0,1,43.8,78.6Z"/><path class="cls-2" d="M38.4,82.5a1.67,1.67,0,0,1-1.2,1.1c0-.2.1-.4.1-.7.2-.4.4-.8,1-.8C38.3,82.3,38.4,82.4,38.4,82.5Z"/><path class="cls-2" d="M37.4,81.9a.55.55,0,0,0,.5-.3c.1-.2.3-.2.5-.1a.6.6,0,0,1-.1.4c-.3.2-.4.7-1,.5A.9.9,0,0,1,37.4,81.9Z"/><path class="cls-2" d="M37.3,82.4a1.91,1.91,0,0,0,1-.5v.3c-.3.3-.7.5-1,.8A.64.64,0,0,1,37.3,82.4Z"/><path class="cls-2" d="M41.1,66.8l1.2-.9a.52.52,0,0,1,.8.1,6.89,6.89,0,0,1,.3.8,5,5,0,0,1,2.8-1.4,2.92,2.92,0,0,0,1.2-.7,5.91,5.91,0,0,1,4-1.7c.3.3.3.5,0,.8a4.43,4.43,0,0,1-2.7,1.4c-.7.2-1.6.1-2.1.7-.1.1-.3.2-.4.4a3.82,3.82,0,0,1-2.3,2c-.3.1-.5.2-.5.6.1.9-.1,1.8,0,2.8.9-.6,1.5-1.4,2.6-1.7.7,0,.5.4.3.6A14.84,14.84,0,0,1,43,73.4a.52.52,0,0,1-.8-.1V72c0-.6,0-.7-.7-.8a5.28,5.28,0,0,1-2.2-.8,1.29,1.29,0,0,1,1.2-1c.2.1.4.1.5.2a.88.88,0,0,0,.8.2A.54.54,0,0,0,42,69a.6.6,0,0,1,0-.7C42.1,67.4,42,67.1,41.1,66.8Z"/><path class="cls-2" d="M42.1,73.2c.2-.1.4-.1.5-.2,1.1-.8,2.2-1.7,3.2-2.5.2-.1.3-.3.1-.5a6,6,0,0,0,2.2-1.6,3.77,3.77,0,0,1,2.1-1c.1.9-.8,1.2-1.5,1.7-.4.3-.9.5-1.3.8a3.18,3.18,0,0,0-1.1,1.2,5.36,5.36,0,0,1-2.4,2.3,2.41,2.41,0,0,0-.8.6c-.5.4-1.2.8-1.3,1.5-.2-.3-.5-.3-.8-.4a7.55,7.55,0,0,1-3-1.4,3.87,3.87,0,0,0-2.1-.8c-.4,0-.9-.1-1.3-.1,0-.6.5-.8,1.1-.9a9.25,9.25,0,0,0,3.7,1,3.39,3.39,0,0,1,1.8.7c.2.2.6.3.8.5A1.53,1.53,0,0,0,42.1,73.2Z"/><path class="cls-2" d="M37.6,64.7a.55.55,0,0,0,.3.5,7.5,7.5,0,0,0-3-.3,6.35,6.35,0,0,1-2.7-.4,4.19,4.19,0,0,1-1.5-.4,3.78,3.78,0,0,1-1.2-.9,1.6,1.6,0,0,0-.9-.7.67.67,0,0,1-.4-.7c0-.2.1-.4.4-.3a14.88,14.88,0,0,0,3,.9,35.42,35.42,0,0,1,4.9,1.8A5.82,5.82,0,0,0,37.6,64.7Z"/><path class="cls-2" d="M38.2,69.6a3,3,0,0,0-2.6-.7,10.23,10.23,0,0,1-4.6-.5,5.38,5.38,0,0,1-2-1c-.4-.4-.4-.5.2-.7a3.75,3.75,0,0,1,2.1,0,26.15,26.15,0,0,1,3.8.9,6.89,6.89,0,0,1,.8.3,8,8,0,0,0,3.1.9C39.3,69.5,38.8,69.6,38.2,69.6Z"/><path class="cls-2" d="M33.4,72.5a5.65,5.65,0,0,1-3.3-1.3c-.4-.4-1-.6-1.3-1.1s-.1-.6.3-.5a16.86,16.86,0,0,1,5.8,1.7C34.7,72,34.2,72.3,33.4,72.5Z"/><path class="cls-2" d="M38.2,69.6c.3-.2.7-.4.7-.8.4-.1.6.1.9.3,0,.2-.2.2-.4.2.1,0,.3-.1.3-.2a.52.52,0,0,1,.4.2,10.59,10.59,0,0,0-1.2,1A4.51,4.51,0,0,0,38.2,69.6Z"/><path class="cls-2" d="M35.6,71.7c-.4.3-.7.6-1.1.9a.19.19,0,0,1-.3,0c-.2-.1-.4-.2-.2-.4s.6-.8,1.3-.7C35.4,71.6,35.6,71.6,35.6,71.7Z"/><path class="cls-2" d="M35.3,71.5c-.5.2-1.2.4-1,1.1-.3,0-.6-.1-.9-.1l1.5-1.2A.52.52,0,0,1,35.3,71.5Z"/><path class="cls-2" d="M41.3,83a24.52,24.52,0,0,0,.2-2.7c0-.7,0-.7-.7-.9A11.81,11.81,0,0,1,37.1,78l-.9-.6a6.73,6.73,0,0,0-3.4-1.6,24.47,24.47,0,0,1-3.7-.8,13.75,13.75,0,0,1-4.8-2.5c-.1-.1-.3-.2-.3-.4a.62.62,0,0,1,.7-.1,35.93,35.93,0,0,1,4.7,1.2,32.57,32.57,0,0,1,5.3,2.6,5,5,0,0,0,1.3.5,9.59,9.59,0,0,1,4.9,2.5,2.19,2.19,0,0,0,.5.3,8.92,8.92,0,0,0,.3-2.8,2.77,2.77,0,0,1,.1-.9c-.2-.9.2-1.4,1.3-1.5.3.4-.2.7.1,1.1a10.68,10.68,0,0,0,3.6-2.1c.9-.9,2.1-.9,3.4-.8a12.82,12.82,0,0,1,2.7.5c.6.2.6.3.1.6a2.92,2.92,0,0,1-1.4.5,13.2,13.2,0,0,1-2.8.2A5.46,5.46,0,0,0,47,74c-.8.1-1.5.4-1.7,1.1a4.54,4.54,0,0,1-1.8,2.1,1,1,0,0,0-.6.9,11.14,11.14,0,0,1-.2,1.7.79.79,0,0,0,.6-.5c.9-1.3,2.5-1.9,4-2.6l.9-.3a5.09,5.09,0,0,1,3-.6,4.21,4.21,0,0,1,2,1c.2.1,0,.4-.2.4a12.72,12.72,0,0,1-3.4.2h-.1a2,2,0,0,0-2.6.6c-.5.6-1,1.3-1.5,1.9a7.64,7.64,0,0,1-2.5,2.2,2.7,2.7,0,0,0-.8.7C42,82.6,42.1,83.5,41.3,83Z"/><path class="cls-2" d="M36.1,82.9c-1.7-.9-3.6-1.6-5.4-2.4a6,6,0,0,1-1.3-.9c-.2-.2-.5-.4-.7-.6-1.2-1.3-3-1.7-4.6-2.6a3,3,0,0,1,1.8-.4,12,12,0,0,1,7.2,2.4,7.89,7.89,0,0,0,3.3,1.3,9.42,9.42,0,0,1,4.1,2.1.45.45,0,0,1,.2.6,5.66,5.66,0,0,1-1.8-.3,10.36,10.36,0,0,1-3.3-1.7,4.86,4.86,0,0,0-2.9-1.3c0,.6.7.6,1,1a13.07,13.07,0,0,1,1.1,1.2c.3.4.8.6,1.2,1C36.1,82.6,36.2,82.8,36.1,82.9Z"/><path class="cls-2" d="M40,95.2a12.38,12.38,0,0,0-1.8-1.4,10.92,10.92,0,0,1-2.4-2.4,4.05,4.05,0,0,0-2.4-1.7,6.72,6.72,0,0,1-3-1.3l-.2-.1c-1.1-.1-1.6-.9-2.6-1.2a7.39,7.39,0,0,1-2.5-1.7,1.2,1.2,0,0,1,.8-.2A11.59,11.59,0,0,1,31,86.7a25.25,25.25,0,0,1,3.5,2.8,7.43,7.43,0,0,0,2.1,1.3,5.08,5.08,0,0,1,2.6,1.9,8.65,8.65,0,0,1,.7,1c.4-.4.2-.9.4-1.3.6-1.1,1.8-1.7,2.8-2.5a.48.48,0,0,1,.7,0,6.78,6.78,0,0,1-2.7,2.6c-.3.1-.3.4-.4.7a9.66,9.66,0,0,1-.3,1.8C40.3,95.3,40.2,95.4,40,95.2Z"/><path class="cls-2" d="M38.7,89.1a4,4,0,0,1-1.5-1c-.5-.4-.9-.8-1.4-1.2a7.9,7.9,0,0,0-4.2-2.3,9.68,9.68,0,0,1-2.4-.8,29.6,29.6,0,0,1-5-2.6,1.61,1.61,0,0,0-.7-.4c-.2,0-.4-.1-.3-.3s.2-.3.4-.3.7.1,1,.1a15.22,15.22,0,0,1,8.2,3.8A9.83,9.83,0,0,0,36.1,86,10.06,10.06,0,0,1,40,88.5c0,.1,0,.2-.1.2C39.7,88.9,39.1,88.8,38.7,89.1Z"/><path class="cls-2" d="M36.1,82.9c-.1-.2-.3-.3,0-.5.6.3,1.2.5,1.8.8a4.35,4.35,0,0,1,2.2,1.5,7.64,7.64,0,0,0,.9.9c.3.6,0,.6-.6.5A7.1,7.1,0,0,1,36.1,82.9Z"/><path class="cls-2" d="M42.1,46.3c-.9.3-1.2,1.1-1.9,1.6a1.37,1.37,0,0,1-1.1.4c-.3,0-.3.1-.3.3a3.81,3.81,0,0,0,.3,1c.2.7.5.8,1.2.4.1,0,.2-.1.3-.1,1,.1,1.4-.5,1.9-1a2.85,2.85,0,0,1,3.6-.1c.4.3.4.4,0,.7a5.25,5.25,0,0,1-2.8.6c-1.3,0-1.3,0-1.8.9a1.42,1.42,0,0,1-.9.8c-.3.1-.6.2-.6.6-.3.3-.4.8-1.1.6a.7.7,0,0,0-1-.4,2,2,0,0,1-1.7-.1,4,4,0,0,0-1.9-.3,21.05,21.05,0,0,1-2.5.2,6.65,6.65,0,0,1-2.4-.7c-.3-.1-.3-.4,0-.5,1.1-.3,1.9-.8,3.3-.5a22,22,0,0,0,3.7.5c.6.1,1.2.1,1.8.2a1.41,1.41,0,0,0-.1-.9c-.2-.8-.3-.8-1.2-.9-.4-.1-1,0-1.3-.3-.3-.8-.1-.9.9-1.2.3.1.6.1,1,.2-.6-1.9-1.1-3.7-1.7-5.5.4-.7.5-.8,1.1-.3.1.1,0,.4.3.5s.3-.3.4-.4a2.69,2.69,0,0,1,2-.9,1.58,1.58,0,0,0,1.5-.7,4,4,0,0,1,2.3-1.2,4,4,0,0,1,2.4.3c.3.1.4.3.1.6a2.94,2.94,0,0,1-1.8,1c-1.5.3-2.8.9-4.2,1.3-.8.2-1.3.8-2.1,1.1-.2.1-.3.2-.2.4.3.8.5,1.7.9,2.6a6.3,6.3,0,0,1,2.9-1,2,2,0,0,0,.9-.6A6.53,6.53,0,0,1,44.7,44c.4.4.1.7-.2,1A6.18,6.18,0,0,1,42.1,46.3Z"/><path class="cls-2" d="M37.4,29.9a1.25,1.25,0,0,1,1.3.4.9.9,0,0,1-.5,1.6c-1.2.2-2.2,1-3.4,1.1a.66.66,0,0,0-.3,1.2.3.3,0,0,0,.4,0,2.51,2.51,0,0,1,1.5-.2,1.91,1.91,0,0,0,1.5-.4,5.77,5.77,0,0,1,2.6-.9,1.29,1.29,0,0,1,1.2.4.66.66,0,0,1,.2.7c-.1.4-.5.6-.8.9s-.7.2-1.1.2a11.42,11.42,0,0,0-3.7.5c-1.5.4-1.5.1-1.1,1.5.1.3.2.7.3,1s.2.3.4.4c.2.8-.1,1-1.1,1.1a2.84,2.84,0,0,1-.4-1.3c-.1-.3-.2-.5-.6-.3a3.92,3.92,0,0,1-3,.2,1.41,1.41,0,0,0-.9.1,2.32,2.32,0,0,1-2.3-.9.25.25,0,0,1,.1-.4,3.39,3.39,0,0,1,1.4-.9,2.48,2.48,0,0,1,1.7,0,2.46,2.46,0,0,0,1.7.2c.5-.1.9.3,1.5.4a7.49,7.49,0,0,0-.5-1.6,1.22,1.22,0,0,0-1.4-.6c-1.2.1-1.6-.7-2.4-1.2-.4-.2-.1-.7.4-.9a2.3,2.3,0,0,1,2.6.6c.2.2.3.5.7.3a1.72,1.72,0,0,1,.8-1.4A27.41,27.41,0,0,0,37.4,29.9Z"/><path class="cls-2" d="M41.1,66.8a2,2,0,0,1-1.5-.4,11.73,11.73,0,0,0-1.1-.5c-.3-.2-.7-.3-.7-.7-.3-.1-.6-.2-.3-.5a7.62,7.62,0,0,1,4,.9.4.4,0,0,0,.2-.4,27.41,27.41,0,0,1-.5-2.8c-.1-.4-.3-.5-.8-.5h-.8a3.64,3.64,0,0,1-2.1-.5,6.23,6.23,0,0,0-3.5-.8,9.46,9.46,0,0,1-4.1-.9,10.61,10.61,0,0,1-2-1.7c-.1,0-.1-.2,0-.2s.2-.1.3-.1a27,27,0,0,1,3.9.8A17.72,17.72,0,0,1,35.2,60a2.66,2.66,0,0,0,1.2.3,10.8,10.8,0,0,1,3.1.2c.4.1.7.4,1.2.4a11.43,11.43,0,0,0-.9-3c-.1-.3.2-.5.4-.7,1.1-.9,2.3-1.8,3.4-2.7a.78.78,0,0,1,.8-.2c0,.4-.4.7-.7,1-.5.5-1.1.8-1.6,1.3-1,.5-.9.5-.7,1.6.2.9.4,1.7.6,2.6a7,7,0,0,1,.5,2.5c0,.1,0,.2.2.3a.19.19,0,0,0,.3-.1c.6-.9,1.8-1,2.8-1.4a5.64,5.64,0,0,0,1.2-.4c.2.5-.4.5-.6.7a12.15,12.15,0,0,1-2.7,2.3c-.7.4-.7,1-.9,1.6C42.3,66.2,41.8,66.8,41.1,66.8Z"/><path class="cls-2" d="M43.7,58.2a2.81,2.81,0,0,1,2.1-1c.6-.1,1.1-.3,1.7-.4a2.13,2.13,0,0,0,1.2-.7,10.08,10.08,0,0,1,4.5-1.9,5.74,5.74,0,0,1,2.9.2c.4.2.5.4,0,.5-.8.3-1.4,1-2.4.9-.1,0-.1,0-.2.1a8.53,8.53,0,0,1-3.9.8,6.78,6.78,0,0,0-3.8,1.8,2.72,2.72,0,0,1-1.7.8c-.4,0-.6.3-1,.3-.6,0-.7-.2-.5-.6C43,58.6,43.4,58.5,43.7,58.2Z"/><path class="cls-2" d="M40,95.2c.2,0,.3-.1.5-.1a2.2,2.2,0,0,1-.1,1.4c-.3,2-.6,4-.7,6a13.5,13.5,0,0,1-.6,3.4,3,3,0,0,1-1.6,1.3c-.2,0-.4.2-.6,0a.47.47,0,0,1-.1-.6c.3-.3.2-.7.4-1a13.89,13.89,0,0,0,.6-1.9,8.3,8.3,0,0,0,.6-2.1,11.05,11.05,0,0,1,.9-3.1,3.33,3.33,0,0,0,.1-1.4C39.6,96.6,39.8,95.9,40,95.2Z"/><path class="cls-2" d="M43.8,90a3.13,3.13,0,0,0-1,.5c-.8.7-1.7,1.3-2.5,2a1,1,0,0,1,.2-.7c.5-1.3,1.9-1.8,3.1-2.5a7.45,7.45,0,0,1,3.9-1.5,8.81,8.81,0,0,1,3.9.8c.6.3,1.3.7,2,1,.2.1.4.2.4.5s-.3.2-.5.2a10.48,10.48,0,0,1-3.9-.5,23.35,23.35,0,0,0-2.5-.7A3.19,3.19,0,0,0,43.8,90Z"/><path class="cls-2" d="M34.7,39.5a2.91,2.91,0,0,0,1.1-1.1,2,2,0,0,1,.8-.1,2.25,2.25,0,0,0,1.4-.6,4.12,4.12,0,0,1,2.4-1.1,2.74,2.74,0,0,1,2.1.6.25.25,0,0,1,.1.4c-.4.3-.7.7-1.2.7a10.14,10.14,0,0,1-2.5.2,1.54,1.54,0,0,0-1.7.8c-.1.1-.1.3-.2.3-1.1.6-.6,1.4-.4,2.1l.3.9c-.5-.2-.8.1-1.1.3a3.36,3.36,0,0,1-.5-1.4c-.4-1.3-.1-1.3-1.6-.8a.88.88,0,0,1-.7.1c0-.7.7-.8,1.2-1A.47.47,0,0,0,34.7,39.5Z"/><path class="cls-2" d="M43.7,89.3a18.85,18.85,0,0,1-3.1,2.5c-.3-.3-.1-.7-.1-1,.1-.9.1-1-.9-1.4a6.89,6.89,0,0,1-.8-.3c.5-.8.5-.8,1.3-.6.3,0,.5.1.6-.2l.1-.1c.3-1,1.5-1.2,2.2-1.9a3.6,3.6,0,0,1,1.2-.8,5.24,5.24,0,0,0,1-1.1,2.84,2.84,0,0,1,2.5-1.1c.5.7-.3,1-.8,1.2a9.44,9.44,0,0,1-.9.3c-1.2.3-1.4,1.3-1.9,2.1a2.54,2.54,0,0,1-.8,1,2.68,2.68,0,0,0-1.3,1c-.4.3-.9.5-.6,1.1.4-.2.9-.4,1.3-.6S43.3,89.1,43.7,89.3Z"/><path class="cls-2" d="M35.1,56.7a4.23,4.23,0,0,1-1.2-.4,2.15,2.15,0,0,0-1.1-.2,8.29,8.29,0,0,1-4.4-1.5,5.17,5.17,0,0,1-1.8-1.5c.1-.3.4-.2.6-.2a8.86,8.86,0,0,1,5.5,1.8,6.06,6.06,0,0,0,2.9,1.4C35.7,56.6,35.4,56.6,35.1,56.7Z"/><path class="cls-2" d="M46.6,62.1c.2-.2.5-.4.6-.7A8.35,8.35,0,0,1,50,59.9a8.09,8.09,0,0,1,5.1,0,.55.55,0,0,1-.4.6,14.88,14.88,0,0,1-3,.9c-1.1.1-2.3.3-3.4.3A10.46,10.46,0,0,0,46.6,62.1Z"/><path class="cls-2" d="M47.3,69.7a1.39,1.39,0,0,1,.7-.8c.7-.6,1.4-1.1,2.1-1.7a6.18,6.18,0,0,1,2.7-.5,4.66,4.66,0,0,1,2,.6c.3.1.4.4.5.6a2.54,2.54,0,0,1-1.2.2,2.84,2.84,0,0,0-1.3.4,1.49,1.49,0,0,1-.9.2,6.47,6.47,0,0,0-2,.4.66.66,0,0,1-.6.1A8.35,8.35,0,0,0,47.3,69.7Z"/><path class="cls-2" d="M46.1,84.8a12.17,12.17,0,0,0,1.7-1.5,6.14,6.14,0,0,1,5.1,1.1.37.37,0,0,1,.2.5.52.52,0,0,1-.4.2c-1.3-.2-2.7.1-4.1-.2a2,2,0,0,0-1.1,0C47,85.1,46.6,84.6,46.1,84.8Z"/><path class="cls-2" d="M48.6,50.6l2.4-.3a1.7,1.7,0,0,1,.7.1c.3.2.4.4.1.6a9.56,9.56,0,0,1-3,1.6,13.1,13.1,0,0,1-2.7.6c-.3,0-.5.3-.8.3.3-1,1.4-1.4,2.1-2.1A12.25,12.25,0,0,0,48.6,50.6Z"/><path class="cls-2" d="M34.3,48.6a21.29,21.29,0,0,1-2.7-.7,4,4,0,0,1-1.9-1.4c-.4-.6-.3-.8.5-.7a7.86,7.86,0,0,1,2.6.8,24,24,0,0,0,2.3,1.1C35.6,48.4,34.8,48.4,34.3,48.6Z"/><path class="cls-2" d="M42.1,46.3c.6-.5,1.2-1,1.9-1.5a1.39,1.39,0,0,0,.7-.8,5.32,5.32,0,0,1,2.8,0c.6.1.6.3.2.6a7.45,7.45,0,0,1-3.9,1.5A11.14,11.14,0,0,1,42.1,46.3Z"/><path class="cls-2" d="M34.1,39.8c-.1.6-.7.8-1.2,1a4.89,4.89,0,0,1-2.4-.1,3.55,3.55,0,0,1-.9-.4c-.5-.6-.3-1.2.6-1.3a1.91,1.91,0,0,1,1.5.4.91.91,0,0,0,1.1.1C33.2,39.2,33.6,39.4,34.1,39.8Z"/><path class="cls-2" d="M31.7,26c.1-.6-.3-1-.9-1.2a3.46,3.46,0,0,1-1-1.1c-.1-.2-.1-.3.1-.5s.3,0,.5.1.5.4.9.4c.2-.6-.7-1.1-.1-1.7.3.1.2.5.5.7.4-.4.4-1.1,1.1-1.4a2.48,2.48,0,0,1,0,1.7c0,.1,0,.1-.1.2a3.36,3.36,0,0,0-.5,2.9C32.1,26.2,32,26.4,31.7,26Z"/><path class="cls-2" d="M48.6,50.6c-.1.4-.4.6-.8.9-.9.7-1.8,1.4-2.6,2.1-.2.2-.4.3-.6.5-1.6,1.2-3.1,2.4-4.7,3.7a.45.45,0,0,1-.5,0c-.4-.3-.1-.5.2-.6s.4-.3.5-.5c1.3-.9,2.3-2.1,3.9-2.8a12.38,12.38,0,0,0,1.8-1.4A5.62,5.62,0,0,1,48.6,50.6Z"/><path class="cls-2" d="M40.1,56.9c-.1.4-.7.4-.7.9a10.87,10.87,0,0,1-1.8.1,2.1,2.1,0,0,1-1.5-.5c-.3-.4-.8-.3-1.1-.6.2-.2.4-.3.4-.6a5.37,5.37,0,0,1,3.5.6c.3.1.6.4.9.3S40.1,56.8,40.1,56.9Z"/><path class="cls-2" d="M32.2,44.4a2.39,2.39,0,0,1-3-.6c-.4-.4-.3-.7.2-.9a2.5,2.5,0,0,1,2.5.2,4.05,4.05,0,0,0,.9.5C33.1,44.2,32.6,44.3,32.2,44.4Z"/><path class="cls-2" d="M38.8,53a2.87,2.87,0,0,1,1.1-.6,18.12,18.12,0,0,1,.9,3.1.89.89,0,0,1-1,1.1l-.9-3A.66.66,0,0,1,38.8,53Z"/><path class="cls-2" d="M48.6,65.2A5.7,5.7,0,0,0,51.2,63a4.19,4.19,0,0,1,2.5.5c.1.2-.1.3-.2.4a12.47,12.47,0,0,1-2.7,1,3.54,3.54,0,0,0-1.1.3A2.05,2.05,0,0,1,48.6,65.2Z"/><path class="cls-2" d="M48.3,79.8a7.6,7.6,0,0,1,2.5.6,3,3,0,0,1-2.1,1.2c-.9.1-1.9.3-2.8.4.3-.9,1.3-1.3,2-1.9A1.38,1.38,0,0,0,48.3,79.8Z"/><path class="cls-2" d="M32.8,28c.2.4.3.9.5,1.4.8-.9,1.2-1.9,2.6-2.3a2,2,0,0,1-.3,1.1,24.05,24.05,0,0,1-2.4,2.1.61.61,0,0,1-.8.1c-.2-.6,0-1.3-.4-1.9a.35.35,0,0,0,.1-.2C32.4,28.2,32.2,27.6,32.8,28Z"/><path class="cls-2" d="M32.2,44.4a1.24,1.24,0,0,0,.6-.8,4.25,4.25,0,0,0,1.1-.2,1.7,1.7,0,0,1,1,0c.7.3,1,.7.8,1a1.25,1.25,0,0,1-1.7.4A3.13,3.13,0,0,0,32.2,44.4Z"/><path class="cls-2" d="M40.4,86.1c.3-.1.5-.2.6-.5l.1-.1c.6-.6,1.3-1.1,2-1.7a.92.92,0,0,1,.9-.3,2.59,2.59,0,0,1-1.2,2.1,2.58,2.58,0,0,0-1.1,1.2l-.1.1c-.2.2-.4.4-.7.3A.73.73,0,0,0,40.4,86.1Z"/><path class="cls-2" d="M32.6,26.3c.4.1.4-.2.5-.4a6.7,6.7,0,0,1,1.1-1.8c.2-.2.5-.7.9-.5s.1.6,0,.9a4.1,4.1,0,0,1-1.5,2c-.3.2-.5.4-.9.2S32.3,26.4,32.6,26.3Z"/><path class="cls-2" d="M32.8,28a.68.68,0,0,0-.6.4,1.76,1.76,0,0,0-.9-.8,12.75,12.75,0,0,1-1.2-.7,1.34,1.34,0,0,1-.6-.7c-.1-.2-.2-.5.1-.6s.4,0,.7.1a5.3,5.3,0,0,1,1,.6c.1.1.3.3.5.2a2.2,2.2,0,0,1,.8.1c.1.1.2.2.1.4s-.2.3.1.4C32.8,27.7,33,27.8,32.8,28Z"/><path class="cls-2" d="M37.4,29.9c-1.1.8-2.1,1.7-3.2,2.5a2.84,2.84,0,0,0-.9,1c-.2-.5-.1-1-.4-1.4-.1-.2,0-.3.1-.5s.2-.7.8-.3c.3.5.3.5.8.2.8-.5,1.6-.9,2.4-1.4C37.1,30,37.2,29.9,37.4,29.9Z"/><path class="cls-2" d="M31,29.5c.3.3.7.5.8,1,.1.3-.1.4-.4.3a3.3,3.3,0,0,1-2-1.6c0-.2-.1-.4.2-.5s.4.1.6.1A2.85,2.85,0,0,0,31,29.5Z"/><path class="cls-2" d="M44.1,83.6c-.6.5-1.3,1-1.9,1.5a1.91,1.91,0,0,1-1,.5.9.9,0,0,1,.1-.5,5.85,5.85,0,0,1,3.3-2.4A1.19,1.19,0,0,0,44.1,83.6Z"/><path class="cls-2" d="M33.6,31.2a1.14,1.14,0,0,0-.8.3c-.1-.4-.5-.7-.4-1.1a2.07,2.07,0,0,0,1-.6c.7-.6,1.4-1.1,2.1-1.7a3.23,3.23,0,0,1-1.2,1.4A1.53,1.53,0,0,0,33.6,31.2Z"/><path class="cls-2" d="M39.8,56.6a1,1,0,0,0,1-1.1c.2.2.4.2.5-.1A3.64,3.64,0,0,1,42.9,54a2.92,2.92,0,0,1,.9-.2c-1.3,1-2.6,2-3.8,3.1-.1,0-.1.1-.2.1Z"/><path class="cls-2" d="M44.2,85.5c-1.1.9-2.3,1.8-3.4,2.7,0-.2-.1-.3.1-.5a7.27,7.27,0,0,1,.8-.9h.1c.1.1.3.2.4.1A4.26,4.26,0,0,1,44.2,85.5Z"/><path class="cls-2" d="M34.7,48.7c-.1,0-.1-.1-.2-.1a1.59,1.59,0,0,1,1-.8c.1,0,.1,0,.2.1.3.1.4.3.1.5S35.3,49.1,34.7,48.7Z"/><path class="cls-2" d="M42.2,56.3A3,3,0,0,1,43.8,55C43.6,55.7,43,56,42.2,56.3Z"/><path class="cls-2" d="M42.1,88.9c0-.7.5-1.1,1.3-1A7.34,7.34,0,0,1,42.1,88.9Z"/><path class="cls-2" d="M41.6,86.8c.1.5-.3.8-.8.9,0-.2.1-.4.1-.6A1.49,1.49,0,0,1,41.6,86.8Z"/><path class="cls-2" d="M34.7,48.7c.9-.1,1-.1,1-.8a.86.86,0,0,1,.6.3c-.4.3-1,.6-.9,1.2A2.34,2.34,0,0,0,34.7,48.7Z"/><path class="cls-2" d="M30.8,20.2c.4.3.4.7.4,1.2C30.6,21,30.8,20.6,30.8,20.2Z"/><path class="cls-2" d="M32.6,26.7c-.3.1-.6.2-.8-.1h0c.1-.3.3-.4.6-.5l.1.1c0,.1.1.2.1.3Z"/><path class="cls-2" d="M32.7,27.5c-.2.1-.3.3-.5.1s0-.5.4-.5A.6.6,0,0,1,32.7,27.5Z"/><path class="cls-2" d="M35.6,47.8c-.3.3-.7.5-1,.8a.37.37,0,0,1-.3-.1c.3-.3.8-.5.9-.9C35.3,47.6,35.4,47.7,35.6,47.8Z"/><path class="cls-2" d="M40.7,88.3c.1.2.1.4-.1.4s-.4-.1-.5-.2l.1-.1C40.3,88.4,40.6,88.4,40.7,88.3Z"/><path class="cls-2" d="M32.4,26.1c-.2.2-.4.3-.6.5a1.27,1.27,0,0,1-.1-.6.64.64,0,0,0,.6,0Z"/><path class="cls-2" d="M39.8,69.1a1.06,1.06,0,0,1-.6.7.3.3,0,0,1-.4,0c-.1-.1,0-.2,0-.3a1.19,1.19,0,0,1,1-.4Z"/></g></g></svg>