<svg xmlns="http://www.w3.org/2000/svg" viewBox="0 0 16 16"><defs><style>.cls-1{fill:#fff;}</style></defs><g id="圖層_2" data-name="圖層 2"><g id="圖層_1-2" data-name="圖層 1"><path class="cls-1" d="M8,16H8c-.49,0-4.76-.06-6-.51A3.09,3.09,0,0,1,.3,13.08,34.6,34.6,0,0,1,0,8a36.29,36.29,0,0,1,.29-5.1h0A3.18,3.18,0,0,1,2,.49H2A31.91,31.91,0,0,1,8,0H8c.49,0,4.77.06,6,.51a3.13,3.13,0,0,1,1.73,2.4A34,34,0,0,1,16,8a34.41,34.41,0,0,1-.3,5.05h0A3.09,3.09,0,0,1,14,15.51h0A32,32,0,0,1,8,16ZM1.5,3.37A33.63,33.63,0,0,0,1.25,8V8a31.91,31.91,0,0,0,.25,4.61,1.53,1.53,0,0,0,.86,1.18A30.56,30.56,0,0,0,8,14.27a31.55,31.55,0,0,0,5.64-.43,1.55,1.55,0,0,0,.86-1.19,31.92,31.92,0,0,0,.25-4.6V8a31.12,31.12,0,0,0-.25-4.65h0a1.55,1.55,0,0,0-.86-1.19A30.56,30.56,0,0,0,8,1.73a31.55,31.55,0,0,0-5.64.43A1.59,1.59,0,0,0,1.5,3.37Zm13.6,9.5Zm-9.2-.76V4.36l5.6,3.87Z"/></g></g></svg>